<svg width="24" height="24" viewBox="0 0 24 24" fill="none" xmlns="http://www.w3.org/2000/svg">
<path d="M17.8536 0.339567L18.2712 1.62477C18.4009 2.0158 18.6202 2.37108 18.9117 2.66217C19.2032 2.95327 19.5588 3.1721 19.95 3.30117L21.2352 3.71877L21.2604 3.72597C21.3595 3.76086 21.4454 3.82566 21.5061 3.91142C21.5669 3.99718 21.5995 4.09968 21.5995 4.20477C21.5995 4.30985 21.5669 4.41235 21.5061 4.49811C21.4454 4.58387 21.3595 4.64867 21.2604 4.68357L19.9752 5.10117C19.584 5.23023 19.2284 5.44907 18.9369 5.74016C18.6454 6.03125 18.4261 6.38653 18.2964 6.77757L17.8788 8.06157C17.8439 8.16069 17.7791 8.24654 17.6934 8.30727C17.6076 8.368 17.5051 8.40062 17.4 8.40062C17.2949 8.40062 17.1924 8.368 17.1067 8.30727C17.0209 8.24654 16.9561 8.16069 16.9212 8.06157L16.5024 6.77757C16.3738 6.38566 16.1552 6.02933 15.864 5.73717C15.5727 5.44443 15.2168 5.22413 14.8248 5.09397L13.5396 4.67637C13.4405 4.64147 13.3546 4.57667 13.2939 4.49091C13.2332 4.40515 13.2006 4.30265 13.2006 4.19757C13.2006 4.09248 13.2332 3.98998 13.2939 3.90422C13.3546 3.81846 13.4405 3.75366 13.5396 3.71877L14.8248 3.30117C15.2112 3.16861 15.5615 2.94821 15.8482 2.65732C16.1349 2.36643 16.3503 2.01298 16.4772 1.62477L16.8948 0.340767C16.9295 0.241225 16.9942 0.154935 17.0801 0.0938716C17.166 0.0328082 17.2688 0 17.3742 0C17.4796 0 17.5824 0.0328082 17.6683 0.0938716C17.7542 0.154935 17.819 0.240025 17.8536 0.339567ZM23.7396 9.85797L22.8204 9.56037C22.5415 9.46712 22.2881 9.31026 22.0802 9.1022C21.8724 8.89414 21.7158 8.64058 21.6228 8.36157L21.3228 7.44477C21.298 7.37389 21.2517 7.31247 21.1905 7.26903C21.1292 7.22558 21.0559 7.20224 20.9808 7.20224C20.9057 7.20224 20.8325 7.22558 20.7712 7.26903C20.7099 7.31247 20.6637 7.37389 20.6388 7.44477L20.3412 8.36157C20.25 8.63879 20.0959 8.8912 19.8911 9.09913C19.6863 9.30707 19.4362 9.46491 19.1604 9.56037L18.2424 9.85797C18.1721 9.88336 18.1113 9.92982 18.0683 9.99102C18.0253 10.0522 18.0023 10.1252 18.0023 10.2C18.0023 10.2747 18.0253 10.3477 18.0683 10.4089C18.1113 10.4701 18.1721 10.5166 18.2424 10.542L19.1604 10.8408C19.4402 10.9341 19.6943 11.0913 19.9026 11.3001C20.1109 11.5088 20.2677 11.7632 20.3604 12.0432L20.658 12.96C20.6829 13.0308 20.7291 13.0923 20.7904 13.1357C20.8517 13.1792 20.9249 13.2025 21 13.2025C21.0751 13.2025 21.1484 13.1792 21.2097 13.1357C21.2709 13.0923 21.3172 13.0308 21.342 12.96L21.6408 12.0432C21.7339 11.764 21.8907 11.5104 22.0988 11.3023C22.3068 11.0942 22.5605 10.9375 22.8396 10.8444L23.7576 10.5468C23.828 10.5214 23.8888 10.4749 23.9317 10.4137C23.9747 10.3525 23.9978 10.2795 23.9978 10.2048C23.9978 10.13 23.9747 10.057 23.9317 9.99582C23.8888 9.93462 23.828 9.88816 23.7576 9.86277L23.7396 9.85797ZM21.0024 14.4012C20.6909 14.4005 20.3864 14.3088 20.1264 14.1372C19.8 15.378 19.1938 16.5275 18.3543 17.4978C17.5148 18.468 16.4642 19.2331 15.2832 19.7345C14.1022 20.2359 12.8221 20.4602 11.541 20.3902C10.2599 20.3202 9.01179 19.9578 7.89243 19.3308L7.78802 19.284L7.67883 19.2588C7.60354 19.2484 7.52699 19.2525 7.45323 19.2708L3.82442 20.1756L4.73163 16.5516L4.74843 16.4376C4.75473 16.3238 4.72851 16.2106 4.67283 16.1112C3.95106 14.8249 3.58068 13.3714 3.59892 11.8966C3.61717 10.4218 4.0234 8.9778 4.77676 7.70983C5.53013 6.44185 6.60407 5.39459 7.89059 4.67335C9.17711 3.95211 10.6308 3.58232 12.1056 3.60117C12.1928 3.36597 12.3308 3.15292 12.5098 2.97723C12.6888 2.80153 12.9044 2.66752 13.1412 2.58477L13.4004 2.50077C12.0359 2.29956 10.644 2.39476 9.31951 2.77989C7.99506 3.16503 6.76915 3.83104 5.72525 4.73259C4.68136 5.63414 3.844 6.75006 3.27018 8.00435C2.69637 9.25864 2.39958 10.6219 2.40002 12.0012L2.40842 12.4164L2.43962 12.8748C2.54952 14.082 2.88707 15.2575 3.43442 16.3392L3.51002 16.4832L2.41803 20.856L2.40122 20.9556V21.054C2.40885 21.1404 2.43514 21.2242 2.47828 21.2995C2.52143 21.3748 2.5804 21.4399 2.65113 21.4902C2.72187 21.5405 2.80267 21.5749 2.88797 21.5909C2.97328 21.607 3.06105 21.6043 3.14522 21.5832L7.51923 20.4912L7.66323 20.568C8.94586 21.2169 10.3578 21.5696 11.7949 21.6001C13.232 21.6306 14.6577 21.3381 15.9667 20.7442C17.2757 20.1502 18.4347 19.27 19.3581 18.1685C20.2816 17.0669 20.9461 15.7721 21.3024 14.3796C21.203 14.393 21.1028 14.4002 21.0024 14.4012Z" fill="#6C7278"/>
</svg>
