<svg width="17" height="13" viewBox="0 0 17 13" fill="none" xmlns="http://www.w3.org/2000/svg">
<path fill-rule="evenodd" clip-rule="evenodd" d="M0.182783 6.90778C0.0657414 6.79059 0 6.63174 0 6.46611C0 6.30049 0.0657414 6.14164 0.182783 6.02445L6.00528 0.191114C6.06291 0.131393 6.13185 0.0837488 6.20809 0.0509577C6.28433 0.0181665 6.36633 0.000886917 6.44932 0.000126839C6.5323 -0.00063324 6.61461 0.0151415 6.69143 0.0465307C6.76826 0.07792 6.83806 0.124296 6.89677 0.182951C6.95548 0.241606 7.00192 0.311366 7.03339 0.388161C7.06485 0.464956 7.0807 0.547248 7.08002 0.630235C7.07934 0.713223 7.06213 0.795242 7.02942 0.87151C6.9967 0.947778 6.94912 1.01677 6.88945 1.07445L2.13278 5.84028L15.6244 5.83111C15.7902 5.83089 15.9493 5.89653 16.0666 6.01358C16.184 6.13064 16.2501 6.28952 16.2503 6.45528C16.2505 6.62104 16.1849 6.7801 16.0678 6.89747C15.9508 7.01483 15.7919 7.08089 15.6261 7.08111L2.13112 7.08945L6.89028 11.8578C6.94995 11.9155 6.99753 11.9845 7.03025 12.0607C7.06297 12.137 7.08017 12.219 7.08085 12.302C7.08153 12.385 7.06568 12.4673 7.03422 12.5441C7.00276 12.6209 6.95632 12.6906 6.89761 12.7493C6.8389 12.8079 6.76909 12.8543 6.69227 12.8857C6.61544 12.9171 6.53314 12.9329 6.45015 12.9321C6.36716 12.9313 6.28516 12.9141 6.20892 12.8813C6.13269 12.8485 6.06374 12.8008 6.00612 12.7411L0.182783 6.90778Z" fill="#211B2A"/>
</svg>
