<svg width="17" height="13" viewBox="0 0 17 13" fill="none" xmlns="http://www.w3.org/2000/svg">
<path fill-rule="evenodd" clip-rule="evenodd" d="M16.0675 6.02435C16.1845 6.14154 16.2503 6.30039 16.2503 6.46601C16.2503 6.63164 16.1845 6.79049 16.0675 6.90768L10.245 12.741C10.1874 12.8007 10.1184 12.8484 10.0422 12.8812C9.96595 12.914 9.88394 12.9312 9.80096 12.932C9.71797 12.9328 9.63566 12.917 9.55884 12.8856C9.48202 12.8542 9.41221 12.8078 9.3535 12.7492C9.29479 12.6905 9.24835 12.6208 9.21689 12.544C9.18543 12.4672 9.16957 12.3849 9.17026 12.3019C9.17094 12.2189 9.18814 12.1369 9.22086 12.0606C9.25358 11.9844 9.30116 11.9154 9.36083 11.8577L14.1175 7.09185L0.625825 7.10101C0.460065 7.10124 0.301006 7.0356 0.18364 6.91855C0.0662727 6.80149 0.000213623 6.64261 -7.62939e-06 6.47685C-0.000228882 6.31109 0.0654068 6.15203 0.182461 6.03466C0.299514 5.9173 0.458397 5.85124 0.624158 5.85101L14.1192 5.84268L9.35999 1.07435C9.30033 1.01667 9.25274 0.947677 9.22003 0.87141C9.18731 0.795142 9.1701 0.713121 9.16942 0.630134C9.16874 0.547147 9.18459 0.464855 9.21605 0.38806C9.24752 0.311265 9.29396 0.241505 9.35267 0.18285C9.41138 0.124195 9.48118 0.0778197 9.55801 0.0464304C9.63483 0.0150411 9.71714 -0.000733783 9.80012 2.62099e-05C9.88311 0.000786203 9.96512 0.018066 10.0414 0.0508571C10.1176 0.0836481 10.1865 0.131294 10.2442 0.191014L16.0675 6.02435Z" fill="white"/>
</svg>
