<svg width="17" height="18" viewBox="0 0 17 18" fill="none" xmlns="http://www.w3.org/2000/svg">
<path d="M6.875 2.5H9.375C9.375 2.16848 9.2433 1.85054 9.00888 1.61612C8.77446 1.3817 8.45652 1.25 8.125 1.25C7.79348 1.25 7.47554 1.3817 7.24112 1.61612C7.0067 1.85054 6.875 2.16848 6.875 2.5ZM5.625 2.5C5.625 1.83696 5.88839 1.20107 6.35723 0.732233C6.82607 0.263392 7.46196 0 8.125 0C8.78804 0 9.42393 0.263392 9.89277 0.732233C10.3616 1.20107 10.625 1.83696 10.625 2.5H15.625C15.7908 2.5 15.9497 2.56585 16.0669 2.68306C16.1842 2.80027 16.25 2.95924 16.25 3.125C16.25 3.29076 16.1842 3.44973 16.0669 3.56694C15.9497 3.68415 15.7908 3.75 15.625 3.75H14.92L13.4137 14.7975C13.3116 15.5462 12.9416 16.2325 12.3724 16.7293C11.8031 17.2262 11.0731 17.5 10.3175 17.5H5.9325C5.1769 17.5 4.44689 17.2262 3.87763 16.7293C3.30836 16.2325 2.93841 15.5462 2.83625 14.7975L1.33 3.75H0.625C0.45924 3.75 0.300268 3.68415 0.183058 3.56694C0.065848 3.44973 0 3.29076 0 3.125C0 2.95924 0.065848 2.80027 0.183058 2.68306C0.300268 2.56585 0.45924 2.5 0.625 2.5H5.625ZM6.875 6.875C6.875 6.70924 6.80915 6.55027 6.69194 6.43306C6.57473 6.31585 6.41576 6.25 6.25 6.25C6.08424 6.25 5.92527 6.31585 5.80806 6.43306C5.69085 6.55027 5.625 6.70924 5.625 6.875V13.125C5.625 13.2908 5.69085 13.4497 5.80806 13.5669C5.92527 13.6842 6.08424 13.75 6.25 13.75C6.41576 13.75 6.57473 13.6842 6.69194 13.5669C6.80915 13.4497 6.875 13.2908 6.875 13.125V6.875ZM10 6.25C10.1658 6.25 10.3247 6.31585 10.4419 6.43306C10.5592 6.55027 10.625 6.70924 10.625 6.875V13.125C10.625 13.2908 10.5592 13.4497 10.4419 13.5669C10.3247 13.6842 10.1658 13.75 10 13.75C9.83424 13.75 9.67527 13.6842 9.55806 13.5669C9.44085 13.4497 9.375 13.2908 9.375 13.125V6.875C9.375 6.70924 9.44085 6.55027 9.55806 6.43306C9.67527 6.31585 9.83424 6.25 10 6.25ZM4.075 14.6287C4.13634 15.0779 4.35831 15.4895 4.6998 15.7876C5.0413 16.0857 5.47922 16.2499 5.9325 16.25H10.3175C10.771 16.2502 11.2092 16.0861 11.551 15.788C11.8927 15.4899 12.1149 15.0781 12.1763 14.6287L13.6588 3.75H2.59125L4.075 14.6287Z" fill="black"/>
</svg>
