<svg width="15" height="16" viewBox="0 0 15 16" fill="none" xmlns="http://www.w3.org/2000/svg">
<path d="M3.33333 0H4.16667C4.38768 0 4.59964 0.0877973 4.75592 0.244078C4.9122 0.400358 5 0.61232 5 0.833333V1.66667H9.16667V0.833333C9.16667 0.61232 9.25447 0.400358 9.41074 0.244078C9.56703 0.0877973 9.77899 0 10 0H10.8333C11.0543 0 11.2663 0.0877973 11.4226 0.244078C11.5789 0.400358 11.6667 0.61232 11.6667 0.833333V1.66667C12.3297 1.66667 12.9656 1.93006 13.4344 2.3989C13.9033 2.86774 14.1667 3.50363 14.1667 4.16667V13.3333C14.1667 13.9964 13.9033 14.6323 13.4344 15.1011C12.9656 15.5699 12.3297 15.8333 11.6667 15.8333H2.5C1.83696 15.8333 1.20107 15.5699 0.732233 15.1011C0.263392 14.6323 0 13.9964 0 13.3333V4.16667C0 3.50363 0.263392 2.86774 0.732233 2.3989C1.20107 1.93006 1.83696 1.66667 2.5 1.66667V0.833333C2.5 0.61232 2.5878 0.400358 2.74408 0.244078C2.90036 0.0877973 3.11232 0 3.33333 0ZM10 1.66667H10.8333V0.833333H10V1.66667ZM4.16667 1.66667V0.833333H3.33333V1.66667H4.16667ZM2.5 2.5C2.05797 2.5 1.63405 2.67559 1.32149 2.98816C1.00893 3.30072 0.833333 3.72464 0.833333 4.16667V5H13.3333V4.16667C13.3333 3.72464 13.1577 3.30072 12.8452 2.98816C12.5326 2.67559 12.1087 2.5 11.6667 2.5H2.5ZM0.833333 13.3333C0.833333 13.7754 1.00893 14.1993 1.32149 14.5118C1.63405 14.8244 2.05797 15 2.5 15H11.6667C12.1087 15 12.5326 14.8244 12.8452 14.5118C13.1577 14.1993 13.3333 13.7754 13.3333 13.3333V5.83333H0.833333V13.3333ZM7.5 9.16667H11.6667V13.3333H7.5V9.16667ZM8.33333 10V12.5H10.8333V10H8.33333Z" fill="#6C7278"/>
</svg>
