<svg width="17" height="15" viewBox="0 0 17 15" fill="none" xmlns="http://www.w3.org/2000/svg">
<path fill-rule="evenodd" clip-rule="evenodd" d="M16.1473 0.126248C16.3128 0.236586 16.4277 0.408139 16.4667 0.603174C16.5057 0.798208 16.4656 1.00075 16.3553 1.16625L7.35529 14.6662C7.29371 14.7585 7.21244 14.8359 7.11732 14.893C7.02221 14.95 6.91563 14.9853 6.80525 14.9962C6.69488 15.0071 6.58346 14.9934 6.47902 14.956C6.37459 14.9187 6.27973 14.8587 6.20129 14.7802L0.201292 8.78025C0.0688118 8.63807 -0.00331137 8.45003 0.000116847 8.25573C0.00354506 8.06143 0.0822571 7.87604 0.21967 7.73863C0.357083 7.60121 0.542468 7.5225 0.736769 7.51907C0.93107 7.51565 1.11912 7.58777 1.26129 7.72025L6.61429 13.0732L15.1073 0.333248C15.2178 0.167925 15.3894 0.0532489 15.5844 0.0144318C15.7795 -0.0243853 15.9819 0.0158343 16.1473 0.126248Z" fill="#2EA3F1"/>
</svg>
