<svg width="20" height="20" viewBox="0 0 20 20" fill="none" xmlns="http://www.w3.org/2000/svg">
<path d="M6.18123 3.13438C6.52185 3.37188 6.6031 3.84063 6.3656 4.17813L4.6156 6.67813C4.48748 6.85938 4.28748 6.975 4.0656 6.99375C3.84373 7.0125 3.62498 6.9375 3.46873 6.78125L2.21873 5.53125C1.9281 5.2375 1.9281 4.7625 2.21873 4.46875C2.50935 4.175 2.98748 4.17813 3.28123 4.46875L3.89998 5.0875L5.13748 3.31875C5.37498 2.97813 5.84373 2.89688 6.18123 3.13438ZM6.18123 8.13438C6.52185 8.37188 6.6031 8.84063 6.3656 9.17813L4.6156 11.6781C4.48748 11.8594 4.28748 11.975 4.0656 11.9938C3.84373 12.0125 3.62498 11.9375 3.46873 11.7813L2.21873 10.5313C1.92498 10.2375 1.92498 9.7625 2.21873 9.47188C2.51248 9.18125 2.98748 9.17813 3.2781 9.47188L3.89685 10.0906L5.13435 8.32188C5.37185 7.98125 5.8406 7.9 6.1781 8.1375L6.18123 8.13438ZM8.99998 5C8.99998 4.44688 9.44685 4 9.99998 4H17C17.5531 4 18 4.44688 18 5C18 5.55313 17.5531 6 17 6H9.99998C9.44685 6 8.99998 5.55313 8.99998 5ZM8.99998 10C8.99998 9.44688 9.44685 9 9.99998 9H17C17.5531 9 18 9.44688 18 10C18 10.5531 17.5531 11 17 11H9.99998C9.44685 11 8.99998 10.5531 8.99998 10ZM6.99998 15C6.99998 14.4469 7.44685 14 7.99998 14H17C17.5531 14 18 14.4469 18 15C18 15.5531 17.5531 16 17 16H7.99998C7.44685 16 6.99998 15.5531 6.99998 15ZM3.99998 13.75C4.6906 13.75 5.24998 14.3094 5.24998 15C5.24998 15.6906 4.6906 16.25 3.99998 16.25C3.30935 16.25 2.74998 15.6906 2.74998 15C2.74998 14.3094 3.30935 13.75 3.99998 13.75Z" fill="#37C01C"/>
</svg>
