<svg width="29" height="29" viewBox="0 0 29 29" fill="none" xmlns="http://www.w3.org/2000/svg">
<path d="M27.0523 11.1916C26.5663 10.6837 26.0636 10.1604 25.8741 9.7002C25.6988 9.27867 25.6884 8.58 25.6781 7.90324C25.6588 6.64512 25.6382 5.21941 24.6469 4.22812C23.6556 3.23684 22.2299 3.21621 20.9718 3.19687C20.295 3.18656 19.5963 3.17625 19.1748 3.00094C18.7159 2.81145 18.1912 2.30871 17.6834 1.82273C16.7939 0.968086 15.7833 0 14.4375 0C13.0917 0 12.0824 0.968086 11.1916 1.82273C10.6837 2.30871 10.1604 2.81145 9.7002 3.00094C9.28125 3.17625 8.58 3.18656 7.90324 3.19687C6.64512 3.21621 5.21941 3.23684 4.22812 4.22812C3.23684 5.21941 3.22266 6.64512 3.19687 7.90324C3.18656 8.58 3.17625 9.27867 3.00094 9.7002C2.81145 10.1591 2.30871 10.6837 1.82273 11.1916C0.968086 12.0811 0 13.0917 0 14.4375C0 15.7833 0.968086 16.7926 1.82273 17.6834C2.30871 18.1912 2.81145 18.7146 3.00094 19.1748C3.17625 19.5963 3.18656 20.295 3.19687 20.9718C3.21621 22.2299 3.23684 23.6556 4.22812 24.6469C5.21941 25.6382 6.64512 25.6588 7.90324 25.6781C8.58 25.6884 9.27867 25.6988 9.7002 25.8741C10.1591 26.0636 10.6837 26.5663 11.1916 27.0523C12.0811 27.9069 13.0917 28.875 14.4375 28.875C15.7833 28.875 16.7926 27.9069 17.6834 27.0523C18.1912 26.5663 18.7146 26.0636 19.1748 25.8741C19.5963 25.6988 20.295 25.6884 20.9718 25.6781C22.2299 25.6588 23.6556 25.6382 24.6469 24.6469C25.6382 23.6556 25.6588 22.2299 25.6781 20.9718C25.6884 20.295 25.6988 19.5963 25.8741 19.1748C26.0636 18.7159 26.5663 18.1912 27.0523 17.6834C27.9069 16.7939 28.875 15.7833 28.875 14.4375C28.875 13.0917 27.9069 12.0824 27.0523 11.1916ZM20.3234 12.0734L13.1046 19.2921C13.0088 19.388 12.8951 19.4641 12.7699 19.516C12.6447 19.5678 12.5105 19.5946 12.375 19.5946C12.2395 19.5946 12.1053 19.5678 11.9801 19.516C11.8549 19.4641 11.7412 19.388 11.6454 19.2921L8.55164 16.1984C8.45583 16.1025 8.37982 15.9888 8.32797 15.8636C8.27612 15.7384 8.24943 15.6043 8.24943 15.4688C8.24943 15.3332 8.27612 15.1991 8.32797 15.0739C8.37982 14.9487 8.45583 14.835 8.55164 14.7391C8.74514 14.5456 9.00759 14.4369 9.28125 14.4369C9.41675 14.4369 9.55093 14.4636 9.67611 14.5155C9.8013 14.5673 9.91505 14.6433 10.0109 14.7391L12.375 17.1046L18.8641 10.6141C18.96 10.5183 19.0737 10.4423 19.1989 10.3905C19.3241 10.3386 19.4582 10.3119 19.5938 10.3119C19.7293 10.3119 19.8634 10.3386 19.9886 10.3905C20.1138 10.4423 20.2275 10.5183 20.3234 10.6141C20.4192 10.71 20.4952 10.8237 20.547 10.9489C20.5989 11.0741 20.6256 11.2082 20.6256 11.3438C20.6256 11.4793 20.5989 11.6134 20.547 11.7386C20.4952 11.8638 20.4192 11.9775 20.3234 12.0734Z" fill="#50C886"/>
</svg>
