<svg width="13" height="13" viewBox="0 0 13 13" fill="none" xmlns="http://www.w3.org/2000/svg">
<path d="M0.349976 5.89176C0.349976 3.69201 0.349976 2.59185 1.03364 1.90876C1.71731 1.22568 2.81689 1.2251 5.01664 1.2251H7.34998C9.54973 1.2251 10.6499 1.2251 11.333 1.90876C12.0161 2.59243 12.0166 3.69201 12.0166 5.89176V7.05843C12.0166 9.25818 12.0166 10.3583 11.333 11.0414C10.6493 11.7245 9.54973 11.7251 7.34998 11.7251H5.01664C2.81689 11.7251 1.71673 11.7251 1.03364 11.0414C0.350559 10.3578 0.349976 9.25818 0.349976 7.05843V5.89176Z" stroke="#6C7278" stroke-width="0.7"/>
<path d="M3.26666 1.2251V0.350098M9.1 1.2251V0.350098M0.641663 4.14176H11.725" stroke="#6C7278" stroke-width="0.7" stroke-linecap="round"/>
<path d="M9.68329 8.80827C9.68329 8.96298 9.62183 9.11135 9.51243 9.22075C9.40304 9.33014 9.25466 9.3916 9.09996 9.3916C8.94525 9.3916 8.79687 9.33014 8.68748 9.22075C8.57808 9.11135 8.51662 8.96298 8.51662 8.80827C8.51662 8.65356 8.57808 8.50518 8.68748 8.39579C8.79687 8.28639 8.94525 8.22493 9.09996 8.22493C9.25466 8.22493 9.40304 8.28639 9.51243 8.39579C9.62183 8.50518 9.68329 8.65356 9.68329 8.80827ZM9.68329 6.47493C9.68329 6.62964 9.62183 6.77802 9.51243 6.88741C9.40304 6.99681 9.25466 7.05827 9.09996 7.05827C8.94525 7.05827 8.79687 6.99681 8.68748 6.88741C8.57808 6.77802 8.51662 6.62964 8.51662 6.47493C8.51662 6.32023 8.57808 6.17185 8.68748 6.06246C8.79687 5.95306 8.94525 5.8916 9.09996 5.8916C9.25466 5.8916 9.40304 5.95306 9.51243 6.06246C9.62183 6.17185 9.68329 6.32023 9.68329 6.47493ZM6.76662 8.80827C6.76662 8.96298 6.70516 9.11135 6.59577 9.22075C6.48637 9.33014 6.338 9.3916 6.18329 9.3916C6.02858 9.3916 5.88021 9.33014 5.77081 9.22075C5.66141 9.11135 5.59996 8.96298 5.59996 8.80827C5.59996 8.65356 5.66141 8.50518 5.77081 8.39579C5.88021 8.28639 6.02858 8.22493 6.18329 8.22493C6.338 8.22493 6.48637 8.28639 6.59577 8.39579C6.70516 8.50518 6.76662 8.65356 6.76662 8.80827ZM6.76662 6.47493C6.76662 6.62964 6.70516 6.77802 6.59577 6.88741C6.48637 6.99681 6.338 7.05827 6.18329 7.05827C6.02858 7.05827 5.88021 6.99681 5.77081 6.88741C5.66141 6.77802 5.59996 6.62964 5.59996 6.47493C5.59996 6.32023 5.66141 6.17185 5.77081 6.06246C5.88021 5.95306 6.02858 5.8916 6.18329 5.8916C6.338 5.8916 6.48637 5.95306 6.59577 6.06246C6.70516 6.17185 6.76662 6.32023 6.76662 6.47493ZM3.84996 8.80827C3.84996 8.96298 3.7885 9.11135 3.6791 9.22075C3.5697 9.33014 3.42133 9.3916 3.26662 9.3916C3.11191 9.3916 2.96354 9.33014 2.85414 9.22075C2.74475 9.11135 2.68329 8.96298 2.68329 8.80827C2.68329 8.65356 2.74475 8.50518 2.85414 8.39579C2.96354 8.28639 3.11191 8.22493 3.26662 8.22493C3.42133 8.22493 3.5697 8.28639 3.6791 8.39579C3.7885 8.50518 3.84996 8.65356 3.84996 8.80827ZM3.84996 6.47493C3.84996 6.62964 3.7885 6.77802 3.6791 6.88741C3.5697 6.99681 3.42133 7.05827 3.26662 7.05827C3.11191 7.05827 2.96354 6.99681 2.85414 6.88741C2.74475 6.77802 2.68329 6.62964 2.68329 6.47493C2.68329 6.32023 2.74475 6.17185 2.85414 6.06246C2.96354 5.95306 3.11191 5.8916 3.26662 5.8916C3.42133 5.8916 3.5697 5.95306 3.6791 6.06246C3.7885 6.17185 3.84996 6.32023 3.84996 6.47493Z" fill="#6C7278"/>
</svg>
