<svg width="14" height="14" viewBox="0 0 14 14" fill="none" xmlns="http://www.w3.org/2000/svg">
<path d="M8.456 1.1665H5.53934C5.30727 1.1665 5.08471 1.25869 4.92062 1.42279C4.75652 1.58688 4.66434 1.80944 4.66434 2.0415C4.66434 2.27357 4.75652 2.49613 4.92062 2.66022C5.08471 2.82432 5.30727 2.9165 5.53934 2.9165H8.456C8.68807 2.9165 8.91063 2.82432 9.07472 2.66022C9.23882 2.49613 9.331 2.27357 9.331 2.0415C9.331 1.80944 9.23882 1.58688 9.07472 1.42279C8.91063 1.25869 8.68807 1.1665 8.456 1.1665Z" stroke="white" stroke-width="0.7" stroke-linecap="round" stroke-linejoin="round"/>
<path d="M9.33099 2.0415C10.2375 2.06892 10.7777 2.16984 11.1516 2.54434C11.6649 3.0565 11.6649 3.88134 11.6649 5.531V9.33317C11.6649 10.9828 11.6649 11.8077 11.1516 12.3204C10.6394 12.8332 9.81399 12.8332 8.16491 12.8332H5.83158C4.18074 12.8332 3.35591 12.8332 2.84374 12.3204C2.33158 11.8077 2.33099 10.9828 2.33099 9.33317V5.53159C2.33099 3.88192 2.33099 3.0565 2.84374 2.54434C3.21766 2.16984 3.75841 2.06892 4.66433 2.0415" stroke="white" stroke-width="0.7" stroke-linecap="round" stroke-linejoin="round"/>
<path d="M4.37265 6.4165L4.95598 6.99984L6.12265 5.5415M7.58098 9.9165H9.33098M7.58098 6.4165H9.33098" stroke="white" stroke-width="0.7" stroke-linecap="round" stroke-linejoin="round"/>
<path d="M4.95016 9.83936H4.95683" stroke="white" stroke-width="0.7" stroke-linecap="round" stroke-linejoin="round"/>
</svg>
