<svg width="13" height="14" viewBox="0 0 13 14" fill="none" xmlns="http://www.w3.org/2000/svg">
<path d="M5 2.16667V2.33333H7.66667V2.16667C7.66667 1.81304 7.52619 1.47391 7.27614 1.22386C7.02609 0.973809 6.68695 0.833333 6.33333 0.833333C5.97971 0.833333 5.64057 0.973809 5.39052 1.22386C5.14048 1.47391 5 1.81304 5 2.16667ZM4.16667 2.33333V2.16667C4.16667 1.59203 4.39494 1.04093 4.80127 0.634602C5.2076 0.228273 5.7587 0 6.33333 0C6.90797 0 7.45907 0.228273 7.8654 0.634602C8.27173 1.04093 8.5 1.59203 8.5 2.16667V2.33333H12.25C12.3605 2.33333 12.4665 2.37723 12.5446 2.45537C12.6228 2.53351 12.6667 2.63949 12.6667 2.75C12.6667 2.86051 12.6228 2.96649 12.5446 3.04463C12.4665 3.12277 12.3605 3.16667 12.25 3.16667H11.2777L10.611 11.1187C10.5603 11.7225 10.2847 12.2853 9.83861 12.6955C9.39255 13.1057 8.80866 13.3334 8.20267 13.3333H4.464C3.85806 13.3333 3.27426 13.1056 2.82827 12.6954C2.38228 12.2852 2.10665 11.7225 2.056 11.1187L1.38933 3.16667H0.416667C0.30616 3.16667 0.200179 3.12277 0.122039 3.04463C0.0438987 2.96649 0 2.86051 0 2.75C0 2.63949 0.0438987 2.53351 0.122039 2.45537C0.200179 2.37723 0.30616 2.33333 0.416667 2.33333H4.16667ZM2.88633 11.049C2.91951 11.4446 3.1001 11.8133 3.3923 12.0821C3.68451 12.3508 4.067 12.5 4.464 12.5H8.20267C8.59972 12.5001 8.9823 12.3509 9.27458 12.0822C9.56685 11.8134 9.74748 11.4447 9.78067 11.049L10.4413 3.16667H2.22533L2.88633 11.049ZM5.5 5.41667C5.5 5.36195 5.48922 5.30777 5.46828 5.25722C5.44734 5.20666 5.41665 5.16073 5.37796 5.12204C5.33927 5.08335 5.29334 5.05266 5.24278 5.03172C5.19223 5.01078 5.13805 5 5.08333 5C5.02862 5 4.97443 5.01078 4.92388 5.03172C4.87333 5.05266 4.8274 5.08335 4.7887 5.12204C4.75001 5.16073 4.71932 5.20666 4.69838 5.25722C4.67744 5.30777 4.66667 5.36195 4.66667 5.41667V10.25C4.66667 10.3047 4.67744 10.3589 4.69838 10.4095C4.71932 10.46 4.75001 10.5059 4.7887 10.5446C4.8274 10.5833 4.87333 10.614 4.92388 10.6349C4.97443 10.6559 5.02862 10.6667 5.08333 10.6667C5.13805 10.6667 5.19223 10.6559 5.24278 10.6349C5.29334 10.614 5.33927 10.5833 5.37796 10.5446C5.41665 10.5059 5.44734 10.46 5.46828 10.4095C5.48922 10.3589 5.5 10.3047 5.5 10.25V5.41667ZM7.58333 5C7.81333 5 8 5.18667 8 5.41667V10.25C8 10.3605 7.9561 10.4665 7.87796 10.5446C7.79982 10.6228 7.69384 10.6667 7.58333 10.6667C7.47283 10.6667 7.36685 10.6228 7.2887 10.5446C7.21056 10.4665 7.16667 10.3605 7.16667 10.25V5.41667C7.16667 5.18667 7.35333 5 7.58333 5Z" fill="#6C7278"/>
</svg>
