<svg width="20" height="20" viewBox="0 0 20 20" fill="none" xmlns="http://www.w3.org/2000/svg">
<path fill-rule="evenodd" clip-rule="evenodd" d="M9.95258 1.0415H11.2501C11.4158 1.0415 11.5748 1.10735 11.692 1.22456C11.8092 1.34177 11.8751 1.50074 11.8751 1.6665C11.8751 1.83226 11.8092 1.99124 11.692 2.10845C11.5748 2.22566 11.4158 2.2915 11.2501 2.2915H10.0001C8.01841 2.2915 6.59508 2.29317 5.51175 2.43817C4.44591 2.5815 3.80341 2.85484 3.32841 3.329C2.85425 3.804 2.58175 4.44567 2.43841 5.5115C2.29341 6.59484 2.29175 8.01817 2.29175 9.99984C2.29175 11.9815 2.29341 13.4048 2.43841 14.4882C2.58175 15.554 2.85508 16.1965 3.32925 16.6715C3.80425 17.1457 4.44591 17.4182 5.51175 17.5615C6.59508 17.7065 8.01841 17.7082 10.0001 17.7082C11.9817 17.7082 13.4051 17.7065 14.4884 17.5615C15.5542 17.4182 16.1967 17.1448 16.6717 16.6707C17.1459 16.1957 17.4184 15.554 17.5617 14.4882C17.7067 13.4048 17.7084 11.9815 17.7084 9.99984V8.74984C17.7084 8.58408 17.7743 8.42511 17.8915 8.3079C18.0087 8.19069 18.1677 8.12484 18.3334 8.12484C18.4992 8.12484 18.6581 8.19069 18.7754 8.3079C18.8926 8.42511 18.9584 8.58408 18.9584 8.74984V10.0473C18.9584 11.9715 18.9584 13.479 18.8001 14.6557C18.6384 15.859 18.3001 16.809 17.5551 17.5548C16.8092 18.3007 15.8592 18.6382 14.6551 18.7998C13.4792 18.9582 11.9717 18.9582 10.0476 18.9582H9.95258C8.02841 18.9582 6.52091 18.9582 5.34425 18.7998C4.14091 18.6382 3.19091 18.2998 2.44508 17.5548C1.69925 16.809 1.36175 15.859 1.20008 14.6548C1.04175 13.479 1.04175 11.9715 1.04175 10.0473V9.95234C1.04175 8.02817 1.04175 6.52067 1.20008 5.344C1.36175 4.14067 1.70008 3.19067 2.44508 2.44484C3.19091 1.699 4.14091 1.3615 5.34508 1.19984C6.52091 1.0415 8.02841 1.0415 9.95258 1.0415ZM13.9751 1.8965C14.525 1.36171 15.2634 1.06488 16.0305 1.07019C16.7975 1.07551 17.5317 1.38255 18.0742 1.92492C18.6166 2.46729 18.9238 3.20139 18.9293 3.96847C18.9348 4.73555 18.6381 5.47395 18.1034 6.024L12.5634 11.5648C12.2542 11.8732 12.0601 12.0682 11.8442 12.2365C11.5895 12.4355 11.3137 12.606 11.0217 12.7448C10.7742 12.8623 10.5134 12.949 10.0992 13.0873L7.67841 13.894C7.45939 13.9669 7.22439 13.9775 6.99973 13.9244C6.77506 13.8713 6.56961 13.7568 6.40638 13.5935C6.24314 13.4303 6.12858 13.2249 6.07551 13.0002C6.02244 12.7755 6.03297 12.5405 6.10591 12.3215L6.91258 9.90067C7.05091 9.48567 7.13758 9.22567 7.25508 8.97817C7.39508 8.68595 7.56453 8.41178 7.76341 8.15567C7.93175 7.939 8.12591 7.74567 8.43508 7.4365L13.9751 1.8965ZM17.2192 2.77984C16.9062 2.46698 16.4818 2.29123 16.0392 2.29123C15.5967 2.29123 15.1723 2.46698 14.8592 2.77984L14.5459 3.094C14.5637 3.17456 14.5909 3.26845 14.6276 3.37567C14.7467 3.71984 14.9734 4.17317 15.4001 4.59984C15.8156 5.01547 16.336 5.31067 16.9059 5.454L17.2192 5.14067C17.5321 4.82766 17.7079 4.40322 17.7079 3.96067C17.7079 3.51812 17.5321 3.09284 17.2192 2.77984ZM15.9209 6.43984C15.3962 6.2136 14.9194 5.88949 14.5159 5.48484C14.1113 5.08138 13.7872 4.60456 13.5609 4.07984L9.34841 8.2915C9.00092 8.639 8.86508 8.7765 8.74841 8.92484C8.60675 9.10884 8.4847 9.30713 8.38425 9.5165C8.30258 9.68567 8.24091 9.869 8.08508 10.3348L7.72591 11.414L8.58592 12.2748L9.66508 11.9148C10.1317 11.759 10.3142 11.6973 10.4842 11.6165C10.6942 11.5165 10.8915 11.3946 11.0759 11.2507C11.2234 11.1348 11.3609 10.999 11.7084 10.6523L15.9209 6.43984Z" fill="black"/>
</svg>
