<svg width="15" height="16" viewBox="0 0 15 16" fill="none" xmlns="http://www.w3.org/2000/svg">
<path d="M0.5 15.5003H13.8333M1.88833 8.98945C1.53301 9.34556 1.33342 9.82805 1.33333 10.3311V13.0003H4.01917C4.5225 13.0003 5.005 12.8003 5.36083 12.4436L13.2775 4.52278C13.6327 4.16661 13.8322 3.68413 13.8322 3.18111C13.8322 2.6781 13.6327 2.19562 13.2775 1.83945L12.4958 1.05611C12.3196 0.87974 12.1102 0.739842 11.8798 0.64442C11.6495 0.548998 11.4025 0.499923 11.1532 0.5C10.9038 0.500077 10.6569 0.549306 10.4266 0.644871C10.1962 0.740436 9.98701 0.880464 9.81083 1.05695L1.88833 8.98945Z" stroke="black" stroke-linecap="round" stroke-linejoin="round"/>
</svg>
