<svg width="20" height="20" viewBox="0 0 20 20" fill="none" xmlns="http://www.w3.org/2000/svg">
<path fill-rule="evenodd" clip-rule="evenodd" d="M10 0.714233C8.04571 0.714233 6.46571 0.772805 4.83 0.885662C3.99177 0.941682 3.20261 1.30101 2.61002 1.8965C2.01742 2.49199 1.66194 3.28288 1.61 4.12138C1.48841 6.07854 1.4279 8.03901 1.42857 9.99995C1.42857 12.0142 1.49143 13.9799 1.61 15.8785C1.66194 16.717 2.01742 17.5079 2.61002 18.1034C3.20261 18.6989 3.99177 19.0582 4.83 19.1142C6.46571 19.2271 8.04429 19.2857 10 19.2857C11.9543 19.2857 13.5343 19.2271 15.17 19.1142C16.0082 19.0582 16.7974 18.6989 17.39 18.1034C17.9826 17.5079 18.3381 16.717 18.39 15.8785C18.5623 13.1154 18.6128 10.3461 18.5414 7.57852C18.5261 6.87497 18.2947 6.19316 17.8786 5.62566C16.5871 3.86709 15.5414 2.7528 13.8329 1.43423C13.2566 0.99295 12.5543 0.747655 11.8286 0.734233C11.2191 0.720955 10.6096 0.714287 10 0.714233Z" fill="#8FBFFA"/>
<path fill-rule="evenodd" clip-rule="evenodd" d="M7.27714 4.82141C7.04034 4.82141 6.81324 4.91548 6.6458 5.08292C6.47835 5.25037 6.38428 5.47747 6.38428 5.71427C6.38428 5.95107 6.47835 6.17817 6.6458 6.34561C6.81324 6.51306 7.04034 6.60713 7.27714 6.60713H10.5629C10.7997 6.60713 11.0268 6.51306 11.1942 6.34561C11.3616 6.17817 11.4557 5.95107 11.4557 5.71427C11.4557 5.47747 11.3616 5.25037 11.1942 5.08292C11.0268 4.91548 10.7997 4.82141 10.5629 4.82141H7.27714ZM7.27714 13.2814C7.04034 13.2814 6.81324 13.3755 6.6458 13.5429C6.47835 13.7104 6.38428 13.9375 6.38428 14.1743C6.38428 14.4111 6.47835 14.6382 6.6458 14.8056C6.81324 14.9731 7.04034 15.0671 7.27714 15.0671H12.7057C12.9425 15.0671 13.1696 14.9731 13.3371 14.8056C13.5045 14.6382 13.5986 14.4111 13.5986 14.1743C13.5986 13.9375 13.5045 13.7104 13.3371 13.5429C13.1696 13.3755 12.9425 13.2814 12.7057 13.2814H7.27714ZM7.27714 9.12998C7.04034 9.12998 6.81324 9.22405 6.6458 9.39149C6.47835 9.55894 6.38428 9.78604 6.38428 10.0228C6.38428 10.2596 6.47835 10.4867 6.6458 10.6542C6.81324 10.8216 7.04034 10.9157 7.27714 10.9157H12.7229C12.9597 10.9157 13.1868 10.8216 13.3542 10.6542C13.5216 10.4867 13.6157 10.2596 13.6157 10.0228C13.6157 9.78604 13.5216 9.55894 13.3542 9.39149C13.1868 9.22405 12.9597 9.12998 12.7229 9.12998H7.27714Z" fill="#2859C5"/>
</svg>
