<svg width="19" height="19" viewBox="0 0 19 19" fill="none" xmlns="http://www.w3.org/2000/svg">
<path d="M16.3898 10.3828H16.393H16.3865H16.3898ZM15.9323 10.0454C15.9972 10.2518 16.1841 10.3815 16.3898 10.3828C16.4352 10.3828 16.4852 10.3699 16.5358 10.3569C16.7889 10.279 16.9316 9.99997 16.8473 9.74689C16.8278 9.68849 14.881 3.89355 9.0848 3.89355C3.28857 3.89355 1.34114 9.68849 1.32167 9.74689C1.23731 9.99997 1.38007 10.2725 1.63316 10.3569C1.89273 10.4412 2.16528 10.2985 2.24964 10.0454L2.25159 10.0422C2.33789 9.78907 4.0277 4.86695 9.09129 4.86695C14.1802 4.86695 15.8609 9.83125 15.9323 10.0454ZM5.84016 10.3828C5.84016 9.52231 6.18201 8.69702 6.79049 8.08853C7.39898 7.48004 8.22427 7.1382 9.0848 7.1382C9.94534 7.1382 10.7706 7.48004 11.3791 8.08853C11.9876 8.69702 12.3294 9.52231 12.3294 10.3828C12.3294 11.2434 11.9876 12.0687 11.3791 12.6771C10.7706 13.2856 9.94534 13.6275 9.0848 13.6275C8.22427 13.6275 7.39898 13.2856 6.79049 12.6771C6.18201 12.0687 5.84016 11.2434 5.84016 10.3828Z" fill="#6C7278"/>
</svg>
