<svg width="19" height="19" viewBox="0 0 19 19" fill="none" xmlns="http://www.w3.org/2000/svg">
<path d="M11.4921 12.295L16.064 16.868C16.1168 16.9208 16.1795 16.9627 16.2484 16.9912C16.3174 17.0198 16.3913 17.0345 16.466 17.0345C16.5407 17.0345 16.6146 17.0198 16.6836 16.9912C16.7525 16.9627 16.8152 16.9208 16.868 16.868C16.9208 16.8152 16.9627 16.7525 16.9912 16.6836C17.0198 16.6146 17.0345 16.5407 17.0345 16.466C17.0345 16.3913 17.0198 16.3174 16.9912 16.2484C16.9627 16.1795 16.9208 16.1168 16.868 16.064L2.10528 1.30128C2.05249 1.24849 1.98982 1.20661 1.92084 1.17804C1.85187 1.14947 1.77794 1.13477 1.70328 1.13477C1.62862 1.13477 1.55469 1.14947 1.48572 1.17804C1.41674 1.20661 1.35407 1.24849 1.30128 1.30128C1.24849 1.35407 1.20661 1.41674 1.17804 1.48572C1.14947 1.55469 1.13477 1.62862 1.13477 1.70328C1.13477 1.77794 1.14947 1.85187 1.17804 1.92084C1.20661 1.98982 1.24849 2.05249 1.30128 2.10528L4.96925 5.77325C4.47013 6.12703 4.02094 6.54643 3.63379 7.02013C3.08575 7.69258 2.65675 8.4538 2.36533 9.27087C2.34148 9.34014 2.31196 9.43553 2.31196 9.43553L2.29152 9.50594C2.29152 9.50594 2.20521 10.0703 2.69465 10.1998C2.84012 10.2382 2.9949 10.2174 3.12499 10.1418C3.25509 10.0662 3.34986 9.94207 3.3885 9.79665L3.38964 9.79325L3.39872 9.76486L3.43847 9.64108C3.68598 8.95123 4.04885 8.30843 4.5116 7.74009C4.87616 7.29371 5.30657 6.90543 5.78801 6.5886L7.57998 8.38057C7.21836 8.60722 6.9125 8.91248 6.68513 9.27364C6.45777 9.63481 6.31476 10.0426 6.26674 10.4666C6.21871 10.8907 6.26692 11.3201 6.40776 11.723C6.5486 12.1259 6.77845 12.4918 7.08023 12.7936C7.382 13.0953 7.74793 13.3252 8.15079 13.466C8.55365 13.6069 8.98309 13.6551 9.40715 13.6071C9.83121 13.559 10.239 13.416 10.6002 13.1887C10.9613 12.9613 11.2666 12.6554 11.4932 12.2938M7.17798 4.76711L8.14777 5.73691C8.44227 5.69754 8.75456 5.67786 9.08464 5.67786C11.4058 5.67786 12.8162 6.71352 13.6588 7.74123C14.1216 8.30957 14.4844 8.95237 14.7319 9.64221C14.7509 9.69748 14.7641 9.73874 14.7717 9.76599L14.7808 9.79438V9.79779L14.7819 9.79892C14.8239 9.94064 14.9196 10.0604 15.0485 10.1327C15.1774 10.205 15.3294 10.2242 15.4723 10.1862C15.6151 10.1482 15.7375 10.056 15.8134 9.9292C15.8894 9.80237 15.9129 9.65094 15.8789 9.50708V9.50367L15.8778 9.49913L15.8732 9.48437C15.854 9.41251 15.8313 9.34164 15.8051 9.27201C15.5137 8.45493 15.0847 7.69371 14.5366 7.02126C13.5191 5.77892 11.8055 4.54226 9.08691 4.54226C8.38511 4.54226 7.75031 4.62289 7.17798 4.76711Z" fill="#6C7278"/>
</svg>
