<svg width="12" height="12" viewBox="0 0 12 12" fill="none" xmlns="http://www.w3.org/2000/svg">
<path d="M5.06 5.05957C4.8519 5.26659 4.73442 5.5477 4.73334 5.84124C4.73334 6.13519 4.85011 6.41709 5.05796 6.62495C5.26581 6.8328 5.54772 6.94957 5.84167 6.94957C6.1352 6.94849 6.41632 6.83101 6.62334 6.6229" stroke="#6C7278" stroke-width="0.6" stroke-linecap="round" stroke-linejoin="round"/>
<path d="M5.84166 2.5166C5.18404 2.5166 4.54119 2.71161 3.99439 3.07696C3.4476 3.44232 3.02143 3.96161 2.76976 4.56918C2.5181 5.17674 2.45226 5.84529 2.58055 6.49028C2.70885 7.13526 3.02552 7.72772 3.49053 8.19273C3.95554 8.65774 4.548 8.97442 5.19299 9.10271C5.83798 9.23101 6.50652 9.16516 7.11409 8.9135C7.72165 8.66184 8.24094 8.23567 8.6063 7.68887C8.97166 7.14208 9.16666 6.49922 9.16666 5.8416" stroke="#6C7278" stroke-width="0.6" stroke-linecap="round" stroke-linejoin="round"/>
<path d="M5.84166 0.299805C4.74562 0.299805 3.67419 0.624818 2.76287 1.23374C1.85155 1.84267 1.14126 2.70816 0.721825 3.72077C0.302389 4.73337 0.192645 5.84762 0.406472 6.9226C0.620298 7.99757 1.14809 8.985 1.92311 9.76002C2.69812 10.535 3.68555 11.0628 4.76053 11.2767C5.83551 11.4905 6.94975 11.3807 7.96236 10.9613C8.97497 10.5419 9.84046 9.83158 10.4494 8.92026C11.0583 8.00893 11.3833 6.93751 11.3833 5.84147M7.89791 3.7858L6.39582 5.2873" stroke="#6C7278" stroke-width="0.6" stroke-linecap="round" stroke-linejoin="round"/>
<path d="M11.0567 2.25051L9.16668 2.51651L9.43268 0.626506C9.43463 0.604554 9.42999 0.582518 9.41936 0.563214C9.40873 0.54391 9.39258 0.528215 9.37298 0.518134C9.35338 0.508053 9.33122 0.504044 9.30933 0.506619C9.28744 0.509194 9.26682 0.518236 9.2501 0.53259L7.9971 1.77917C7.8684 1.9088 7.77374 2.06823 7.72153 2.24328C7.66932 2.41832 7.66118 2.60356 7.69785 2.78251L7.89735 3.78584L8.90068 3.98476C9.07963 4.02142 9.26486 4.01328 9.43991 3.96108C9.61496 3.90887 9.77438 3.8142 9.90401 3.68551L11.15 2.43309C11.1644 2.41633 11.1735 2.39565 11.176 2.37369C11.1786 2.35174 11.1745 2.32953 11.1644 2.3099C11.1542 2.29027 11.1384 2.27413 11.119 2.26355C11.0996 2.25297 11.0775 2.24842 11.0555 2.25051" stroke="#6C7278" stroke-width="0.6" stroke-linecap="round" stroke-linejoin="round"/>
</svg>
