<svg width="20" height="20" viewBox="0 0 20 20" fill="none" xmlns="http://www.w3.org/2000/svg">
<path d="M6.9875 9.66317H13.0767V8.82984H6.9875V9.66317ZM7.82083 12.0673H12.2433V11.234H7.82083V12.0673ZM6.34583 18.3332C5.97361 18.3332 5.65611 18.2021 5.39333 17.9398C5.13111 17.6776 5 17.3601 5 16.9873V3.01234C5 2.629 5.12861 2.309 5.38583 2.05234C5.64306 1.79567 5.96333 1.66706 6.34667 1.6665H13.7183C14.0906 1.6665 14.4081 1.79761 14.6708 2.05984C14.9331 2.32206 15.0642 2.63984 15.0642 3.01317V5.6915C15.2714 5.71373 15.4514 5.79984 15.6042 5.94984C15.7569 6.09928 15.8333 6.27928 15.8333 6.48984V7.964C15.8333 8.17456 15.7569 8.35456 15.6042 8.504C15.4514 8.65345 15.2714 8.73956 15.0642 8.76234V16.9865C15.0642 17.3587 14.9331 17.6762 14.6708 17.939C14.4086 18.2012 14.0911 18.3323 13.7183 18.3323L6.34583 18.3332ZM6.34583 17.4998H13.7183C13.8678 17.4998 13.9906 17.4518 14.0867 17.3557C14.1828 17.2596 14.2308 17.1368 14.2308 16.9873V3.01234C14.2308 2.86289 14.1828 2.74012 14.0867 2.644C13.9906 2.54789 13.8678 2.49984 13.7183 2.49984H6.34667C6.19667 2.49984 6.07361 2.54789 5.9775 2.644C5.88139 2.74012 5.83333 2.86317 5.83333 3.01317V16.9873C5.83333 17.1368 5.88139 17.2596 5.9775 17.3557C6.07361 17.4518 6.19667 17.4998 6.34667 17.4998" fill="black"/>
</svg>
