<svg width="20" height="20" viewBox="0 0 20 20" fill="none" xmlns="http://www.w3.org/2000/svg">
<path d="M9.99998 2.7085C10.1657 2.7085 10.3247 2.77434 10.4419 2.89155C10.5591 3.00876 10.625 3.16774 10.625 3.3335C10.625 3.49926 10.5591 3.65823 10.4419 3.77544C10.3247 3.89265 10.1657 3.9585 9.99998 3.9585C8.39763 3.9585 6.86091 4.59503 5.72788 5.72806C4.59484 6.86109 3.95831 8.39781 3.95831 10.0002C3.95831 11.6025 4.59484 13.1392 5.72788 14.2723C6.86091 15.4053 8.39763 16.0418 9.99998 16.0418C10.1657 16.0418 10.3247 16.1077 10.4419 16.2249C10.5591 16.3421 10.625 16.5011 10.625 16.6668C10.625 16.8326 10.5591 16.9916 10.4419 17.1088C10.3247 17.226 10.1657 17.2918 9.99998 17.2918C8.06611 17.2918 6.21145 16.5236 4.84399 15.1561C3.47654 13.7887 2.70831 11.934 2.70831 10.0002C2.70831 8.06629 3.47654 6.21163 4.84399 4.84418C6.21145 3.47672 8.06611 2.7085 9.99998 2.7085Z" fill="black"/>
<path d="M13.725 7.9417C13.6146 7.82322 13.5545 7.66652 13.5573 7.5046C13.5602 7.34268 13.6258 7.18819 13.7403 7.07368C13.8548 6.95917 14.0093 6.89358 14.1712 6.89072C14.3331 6.88787 14.4898 6.94797 14.6083 7.05837L17.1083 9.55837C17.2254 9.67556 17.2911 9.83441 17.2911 10C17.2911 10.1657 17.2254 10.3245 17.1083 10.4417L14.6083 12.9417C14.5511 13.0031 14.4821 13.0524 14.4054 13.0865C14.3288 13.1207 14.246 13.139 14.1621 13.1405C14.0782 13.142 13.9948 13.1266 13.917 13.0951C13.8392 13.0637 13.7685 13.0169 13.7091 12.9576C13.6498 12.8982 13.603 12.8275 13.5715 12.7497C13.5401 12.6719 13.5247 12.5885 13.5262 12.5046C13.5276 12.4207 13.546 12.3379 13.5802 12.2613C13.6143 12.1846 13.6636 12.1156 13.725 12.0584L15.1583 10.625H8.33331C8.16755 10.625 8.00858 10.5592 7.89137 10.442C7.77416 10.3248 7.70831 10.1658 7.70831 10C7.70831 9.83428 7.77416 9.6753 7.89137 9.55809C8.00858 9.44088 8.16755 9.37504 8.33331 9.37504H15.1583L13.725 7.9417Z" fill="black"/>
</svg>
