<svg width="26" height="32" viewBox="0 0 26 32" fill="none" xmlns="http://www.w3.org/2000/svg">
<path d="M20.5206 8.36023V14.4404C20.5206 16.4561 19.7198 18.3893 18.2945 19.8146C16.8692 21.2399 14.9361 22.0406 12.9203 22.0406C10.9046 22.0406 8.9715 21.2399 7.54618 19.8146C6.12086 18.3893 5.32013 16.4561 5.32013 14.4404V8.36023C5.32013 6.34453 6.12086 4.41138 7.54618 2.98606C8.9715 1.56074 10.9046 0.76001 12.9203 0.76001C14.9361 0.76001 16.8692 1.56074 18.2945 2.98606C19.7198 4.41138 20.5206 6.34453 20.5206 8.36023Z" stroke="#211B2A" stroke-width="1.52004"/>
<path d="M20.5206 8.36011H15.9604M20.5206 14.4403H15.9604M25.0807 14.4403C25.0807 17.6654 23.7995 20.7584 21.519 23.039C19.2385 25.3195 16.1455 26.6006 12.9204 26.6006M12.9204 26.6006C9.69523 26.6006 6.6022 25.3195 4.32169 23.039C2.04119 20.7584 0.76001 17.6654 0.76001 14.4403M12.9204 26.6006V31.1608M12.9204 31.1608H17.4805M12.9204 31.1608H8.36023" stroke="#211B2A" stroke-width="1.52004" stroke-linecap="round"/>
</svg>
