<svg width="37" height="37" viewBox="0 0 37 37" fill="none" xmlns="http://www.w3.org/2000/svg">
<path d="M25.8408 10.6405V16.7207C25.8408 18.7364 25.04 20.6695 23.6147 22.0948C22.1894 23.5202 20.2562 24.3209 18.2405 24.3209C16.2248 24.3209 14.2917 23.5202 12.8664 22.0948C11.4411 20.6695 10.6403 18.7364 10.6403 16.7207V10.6405C10.6403 8.6248 11.4411 6.69165 12.8664 5.26634C14.2917 3.84102 16.2248 3.04028 18.2405 3.04028C20.2562 3.04028 22.1894 3.84102 23.6147 5.26634C25.04 6.69165 25.8408 8.6248 25.8408 10.6405Z" stroke="white" stroke-width="1.52004"/>
<path d="M25.8408 10.6404H21.2807M25.8408 16.7206H21.2807M30.4009 16.7206C30.4009 19.9457 29.1197 23.0387 26.8392 25.3192C24.5587 27.5997 21.4657 28.8809 18.2406 28.8809M18.2406 28.8809C15.0154 28.8809 11.9224 27.5997 9.6419 25.3192C7.36139 23.0387 6.08022 19.9457 6.08022 16.7206M18.2406 28.8809V33.441M18.2406 33.441H22.8007M18.2406 33.441H13.6804" stroke="white" stroke-width="1.52004" stroke-linecap="round"/>
</svg>
