<svg width="14" height="14" viewBox="0 0 14 14" fill="none" xmlns="http://www.w3.org/2000/svg">
<path d="M9.33334 1.75V4.08333M4.66668 1.75V4.08333M2.33334 6.41667H11.6667M6.41668 8.75H7.00001V10.5M2.33334 4.08333C2.33334 3.77391 2.45626 3.47717 2.67505 3.25838C2.89384 3.03958 3.19059 2.91667 3.50001 2.91667H10.5C10.8094 2.91667 11.1062 3.03958 11.325 3.25838C11.5438 3.47717 11.6667 3.77391 11.6667 4.08333V11.0833C11.6667 11.3928 11.5438 11.6895 11.325 11.9083C11.1062 12.1271 10.8094 12.25 10.5 12.25H3.50001C3.19059 12.25 2.89384 12.1271 2.67505 11.9083C2.45626 11.6895 2.33334 11.3928 2.33334 11.0833V4.08333Z" stroke="white" stroke-width="0.7" stroke-linecap="round" stroke-linejoin="round"/>
</svg>
