<svg width="29" height="29" viewBox="0 0 29 29" fill="none" xmlns="http://www.w3.org/2000/svg">
<path d="M14.5001 20.5H14.5121M14.5001 8.5V16M1.34507 8.3695L8.36507 1.345C8.59007 1.12 8.89007 1 9.22007 1H19.7951C20.1101 1 20.4251 1.12 20.6501 1.345L27.6551 8.3545C27.8801 8.5795 28.0001 8.8795 28.0001 9.2095V19.7905C28.0001 20.1055 27.8801 20.4205 27.6551 20.6455L20.6501 27.655C20.4251 27.88 20.1251 28 19.7951 28H9.20507C9.04685 28.0017 8.88985 27.9721 8.74311 27.9129C8.59638 27.8537 8.4628 27.766 8.35007 27.655L1.34507 20.6455C1.23403 20.5328 1.14639 20.3992 1.08718 20.2525C1.02797 20.1057 0.998366 19.9487 1.00007 19.7905V9.2095C1.00007 8.8945 1.12007 8.5795 1.34507 8.3545V8.3695Z" stroke="#CE1E1E" stroke-width="2" stroke-miterlimit="10" stroke-linecap="round" stroke-linejoin="round"/>
</svg>
