<svg width="17" height="19" viewBox="0 0 17 19" fill="none" xmlns="http://www.w3.org/2000/svg">
<path d="M13.874 7.175V6.5875C13.874 3.36333 11.354 0.75 8.24901 0.75C5.14401 0.75 2.62401 3.36333 2.62401 6.5875V7.175C2.62502 7.87629 2.42488 8.56317 2.04735 9.15417L1.12401 10.5917C0.281514 11.9042 0.924847 13.6883 2.39068 14.1033C6.22092 15.188 10.2771 15.188 14.1073 14.1033C15.5732 13.6883 16.2165 11.9042 15.374 10.5925L14.4507 9.155C14.0729 8.56409 13.8724 7.87721 13.8732 7.17583L13.874 7.175Z" stroke="#363535" stroke-width="1.5"/>
<path d="M4.49902 14.9165C5.04486 16.3732 6.51736 17.4165 8.24902 17.4165C9.98069 17.4165 11.4532 16.3732 11.999 14.9165" stroke="#363535" stroke-width="1.5" stroke-linecap="round"/>
</svg>
