<svg width="16" height="16" viewBox="0 0 16 16" fill="none" xmlns="http://www.w3.org/2000/svg">
<path d="M14.5251 12.2975C14.6167 11.9925 14.6667 11.6683 14.6667 11.3333V3.83333C14.6667 2.94928 14.3156 2.10143 13.6904 1.47631C13.0653 0.851189 12.2175 0.5 11.3334 0.5H3.83341C2.94935 0.5 2.10151 0.851189 1.47639 1.47631C0.851266 2.10143 0.500076 2.94928 0.500076 3.83333V11.3917C0.515372 12.2656 0.873302 13.0985 1.49677 13.7111C2.12024 14.3236 2.95937 14.6668 3.83341 14.6667H11.3334L11.4309 14.665M14.5251 12.2975L14.4517 12.2108L12.3967 9.73083C12.2408 9.54271 12.0454 9.39117 11.8244 9.28695C11.6034 9.18274 11.3622 9.12838 11.1179 9.12775C10.8735 9.12711 10.6321 9.18021 10.4105 9.28327C10.189 9.38634 9.99281 9.53686 9.83591 9.72417L8.74258 11.0292L8.56424 11.2467M14.5251 12.2975C14.3229 12.9669 13.9154 13.555 13.3601 13.98C12.8048 14.4051 12.1299 14.6447 11.4309 14.665M8.56424 11.2467L11.3534 14.5767L11.4309 14.665M8.56424 11.2467L5.87508 8.03583C5.71864 7.84914 5.52319 7.69899 5.30248 7.59598C5.08176 7.49296 4.84115 7.43957 4.59758 7.43957C4.354 7.43957 4.11339 7.49296 3.89268 7.59598C3.67196 7.69899 3.47651 7.84914 3.32008 8.03583L0.64841 11.225L0.50091 11.3925" stroke="black" stroke-linecap="round" stroke-linejoin="round"/>
<path d="M10.1592 6.25732C10.8496 6.25732 11.4092 5.69768 11.4092 5.00732C11.4092 4.31697 10.8496 3.75732 10.1592 3.75732C9.46888 3.75732 8.90924 4.31697 8.90924 5.00732C8.90924 5.69768 9.46888 6.25732 10.1592 6.25732Z" fill="black"/>
</svg>
