<svg width="300" height="300" viewBox="0 0 300 300" fill="none" xmlns="http://www.w3.org/2000/svg">
<g clip-path="url(#clip0_172_12824)">
<path d="M119.16 185.756L120.042 184.542L119.16 185.756ZM114.244 180.84L113.031 181.721L114.244 180.84ZM185.756 180.84L184.542 179.958L185.756 180.84ZM180.84 185.756L179.958 184.542L180.84 185.756ZM180.84 114.244L179.958 115.458L180.84 114.244ZM185.756 119.16L184.542 120.042L185.756 119.16ZM119.16 114.244L120.042 115.458L119.16 114.244ZM114.244 119.16L115.458 120.042L114.244 119.16ZM115.421 179.159L114.079 178.488L115.421 179.159ZM147.778 163.333L148.226 161.902L148.15 161.878L148.072 161.862L147.778 163.333ZM137.369 161.791L137.401 163.291L137.369 161.791ZM120.593 169.996L119.429 169.05L120.593 169.996ZM148.545 166.762L147.239 166.024L148.545 166.762ZM135.361 187.04C134.953 187.761 135.207 188.676 135.929 189.084C136.65 189.491 137.565 189.237 137.973 188.516L135.361 187.04ZM183.381 154.934L184.249 153.711L183.381 154.934ZM153.27 159.038L152.106 158.092L153.27 159.038ZM114.933 180.135L116.223 180.899L116.25 180.853L116.274 180.806L114.933 180.135ZM135.167 136.667C135.167 142.404 139.818 147.056 145.556 147.056V144.056C141.475 144.056 138.167 140.747 138.167 136.667H135.167ZM145.556 147.056C151.293 147.056 155.944 142.404 155.944 136.667H152.944C152.944 140.747 149.636 144.056 145.556 144.056V147.056ZM155.944 136.667C155.944 130.929 151.293 126.278 145.556 126.278V129.278C149.636 129.278 152.944 132.586 152.944 136.667H155.944ZM145.556 126.278C139.818 126.278 135.167 130.929 135.167 136.667H138.167C138.167 132.586 141.475 129.278 145.556 129.278V126.278ZM150 188.5C141.634 188.5 135.48 188.498 130.683 187.978C125.914 187.462 122.664 186.448 120.042 184.542L118.279 186.969C121.498 189.308 125.335 190.416 130.36 190.961C135.356 191.502 141.701 191.5 150 191.5V188.5ZM108.5 150C108.5 158.299 108.498 164.644 109.039 169.64C109.584 174.665 110.692 178.502 113.031 181.721L115.458 179.958C113.552 177.336 112.538 174.086 112.022 169.317C111.502 164.52 111.5 158.366 111.5 150H108.5ZM150 191.5C158.299 191.5 164.644 191.502 169.64 190.961C174.665 190.416 178.502 189.308 181.721 186.969L179.958 184.542C177.336 186.448 174.086 187.462 169.317 187.978C164.52 188.498 158.366 188.5 150 188.5V191.5ZM184.542 179.958C183.264 181.717 181.717 183.264 179.958 184.542L181.721 186.969C183.735 185.506 185.506 183.735 186.969 181.721L184.542 179.958ZM150 111.5C158.366 111.5 164.52 111.502 169.317 112.022C174.086 112.538 177.336 113.552 179.958 115.458L181.721 113.031C178.502 110.692 174.665 109.584 169.64 109.039C164.644 108.498 158.299 108.5 150 108.5V111.5ZM191.5 150C191.5 141.701 191.502 135.356 190.961 130.36C190.416 125.335 189.308 121.498 186.969 118.279L184.542 120.042C186.448 122.664 187.462 125.914 187.978 130.683C188.498 135.48 188.5 141.634 188.5 150H191.5ZM179.958 115.458C181.717 116.736 183.264 118.283 184.542 120.042L186.969 118.279C185.506 116.265 183.735 114.494 181.721 113.031L179.958 115.458ZM150 108.5C141.701 108.5 135.356 108.498 130.36 109.039C125.335 109.584 121.498 110.692 118.279 113.031L120.042 115.458C122.664 113.552 125.914 112.538 130.683 112.022C135.48 111.502 141.634 111.5 150 111.5V108.5ZM111.5 150C111.5 141.634 111.502 135.48 112.022 130.683C112.538 125.914 113.552 122.664 115.458 120.042L113.031 118.279C110.692 121.498 109.584 125.335 109.039 130.36C108.498 135.356 108.5 141.701 108.5 150H111.5ZM118.279 113.031C116.265 114.494 114.494 116.265 113.031 118.279L115.458 120.042C116.736 118.283 118.283 116.736 120.042 115.458L118.279 113.031ZM148.072 161.862C142.831 160.814 139.98 160.235 137.337 160.291L137.401 163.291C139.635 163.243 142.098 163.727 147.484 164.804L148.072 161.862ZM116.762 179.829C119.219 174.917 120.349 172.676 121.758 170.942L119.429 169.05C117.762 171.102 116.469 173.707 114.079 178.488L116.762 179.829ZM137.337 160.291C130.371 160.439 123.823 163.642 119.429 169.05L121.758 170.942C125.596 166.218 131.316 163.42 137.401 163.291L137.337 160.291ZM147.239 166.024L135.361 187.04L137.973 188.516L149.851 167.5L147.239 166.024ZM184.249 153.711C174.054 146.472 159.991 148.389 152.106 158.092L154.434 159.984C161.322 151.508 173.607 149.834 182.512 156.157L184.249 153.711ZM149.851 167.5C150.428 166.479 150.932 165.587 151.383 164.799L148.779 163.31C148.324 164.106 147.815 165.005 147.239 166.024L149.851 167.5ZM151.383 164.799C152.794 162.331 153.631 160.973 154.434 159.984L152.106 158.092C151.125 159.299 150.176 160.867 148.779 163.31L151.383 164.799ZM147.33 164.765L149.633 165.486L150.529 162.623L148.226 161.902L147.33 164.765ZM190.994 159.984C187.689 156.679 185.894 154.879 184.249 153.711L182.512 156.157C183.898 157.141 185.474 158.707 188.873 162.105L190.994 159.984ZM188.5 150C188.5 154.178 188.5 157.812 188.434 161.013L191.433 161.076C191.5 157.837 191.5 154.169 191.5 150H188.5ZM188.434 161.013C188.234 170.681 187.415 176.004 184.542 179.958L186.969 181.721C190.459 176.919 191.234 170.685 191.433 161.076L188.434 161.013ZM114.079 178.488L113.591 179.464L116.274 180.806L116.762 179.829L114.079 178.488ZM120.042 184.542C118.347 183.311 116.848 181.829 115.598 180.149L113.191 181.94C114.623 183.863 116.338 185.559 118.279 186.969L120.042 184.542ZM115.598 180.149C115.551 180.085 115.504 180.022 115.458 179.958L113.031 181.721C113.084 181.794 113.137 181.867 113.191 181.94L115.598 180.149ZM113.642 179.371L113.104 180.28L115.685 181.808L116.223 180.899L113.642 179.371Z" fill="#111111"/>
</g>
<defs>
<clipPath id="clip0_172_12824">
<rect width="300" height="300" fill="white"/>
</clipPath>
</defs>
</svg>
