<svg width="7" height="10" viewBox="0 0 7 10" fill="none" xmlns="http://www.w3.org/2000/svg">
<path d="M0 10.0065V4.7565C0 4.00478 0.210778 3.33881 0.632333 2.75858C1.0535 2.17836 1.59056 1.76147 2.2435 1.50792V1.2565C2.2435 0.907667 2.366 0.610944 2.611 0.366333C2.856 0.122111 3.15331 0 3.50292 0C3.85253 0 4.14886 0.122111 4.39192 0.366333C4.63497 0.610556 4.7565 0.907278 4.7565 1.2565V1.50733C5.40944 1.76128 5.9465 2.17836 6.36767 2.75858C6.78922 3.33881 7 4.00478 7 4.7565V10.0065H0ZM0.583333 9.42317H6.41667V4.7565C6.41667 3.94956 6.13219 3.26181 5.56325 2.69325C4.99431 2.12469 4.30656 1.84022 3.5 1.83983C2.69344 1.83944 2.00569 2.12392 1.43675 2.69325C0.867806 3.26258 0.583333 3.95033 0.583333 4.7565V9.42317ZM1.45833 5.6315H4.95833V6.79817H5.54167V5.04817H1.45833V5.6315ZM2.82683 1.33758C2.94117 1.31036 3.05336 1.29014 3.16342 1.27692C3.27347 1.26331 3.38567 1.2565 3.5 1.2565C3.61433 1.2565 3.72653 1.26311 3.83658 1.27633C3.94664 1.28956 4.05883 1.30997 4.17317 1.33758V1.2565C4.17317 1.06594 4.10783 0.906111 3.97717 0.777C3.84689 0.647889 3.68783 0.583333 3.5 0.583333C3.31217 0.583333 3.15311 0.647889 3.02283 0.777C2.89256 0.906111 2.82722 1.06594 2.82683 1.2565V1.33758Z" fill="#6C7278"/>
</svg>
