<svg width="16" height="20" viewBox="0 0 16 20" fill="none" xmlns="http://www.w3.org/2000/svg">
<path d="M11.75 4.75C11.75 5.81087 11.3286 6.82828 10.5784 7.57843C9.82828 8.32857 8.81087 8.75 7.75 8.75C6.68913 8.75 5.67172 8.32857 4.92157 7.57843C4.17143 6.82828 3.75 5.81087 3.75 4.75C3.75 3.68913 4.17143 2.67172 4.92157 1.92157C5.67172 1.17143 6.68913 0.75 7.75 0.75C8.81087 0.75 9.82828 1.17143 10.5784 1.92157C11.3286 2.67172 11.75 3.68913 11.75 4.75Z" stroke="#6C7278" stroke-width="1.5"/>
<path d="M9.75 11.75H5.75C4.42392 11.75 3.15215 12.2768 2.21447 13.2145C1.27678 14.1521 0.75 15.4239 0.75 16.75C0.75 17.2804 0.960714 17.7891 1.33579 18.1642C1.71086 18.5393 2.21957 18.75 2.75 18.75H12.75C13.2804 18.75 13.7891 18.5393 14.1642 18.1642C14.5393 17.7891 14.75 17.2804 14.75 16.75C14.75 15.4239 14.2232 14.1521 13.2855 13.2145C12.3479 12.2768 11.0761 11.75 9.75 11.75Z" stroke="#6C7278" stroke-width="1.5" stroke-linejoin="round"/>
</svg>
