<svg width="20" height="20" viewBox="0 0 20 20" fill="none" xmlns="http://www.w3.org/2000/svg">
<path d="M7.01916 16.6668C6.64916 16.6668 6.33249 16.5349 6.06916 16.271C5.80582 16.0071 5.67388 15.6904 5.67332 15.321V4.67933C5.67332 4.30933 5.80499 3.99266 6.06832 3.72933C6.33166 3.466 6.6486 3.33405 7.01916 3.3335H12.9808C13.3508 3.3335 13.6675 3.46544 13.9308 3.72933C14.1942 3.99322 14.3261 4.30988 14.3267 4.67933V15.321C14.3267 15.691 14.195 16.0077 13.9317 16.271C13.6683 16.5343 13.3514 16.6663 12.9808 16.6668H7.01916ZM13.4942 15.3202V4.68016C13.4942 4.53016 13.4458 4.40711 13.3492 4.311C13.253 4.21488 13.1303 4.16683 12.9808 4.16683H7.01916C6.86916 4.16683 6.74638 4.21488 6.65082 4.311C6.55471 4.40711 6.50666 4.53016 6.50666 4.68016V15.321C6.50666 15.4704 6.55471 15.5932 6.65082 15.6893C6.74693 15.7854 6.86971 15.8335 7.01916 15.8335H12.9808C13.1308 15.8335 13.2536 15.7854 13.3492 15.6893C13.4453 15.5932 13.4933 15.4704 13.4933 15.321M10.49 6.7385C10.6122 6.61516 10.6733 6.46266 10.6733 6.281C10.6733 6.09933 10.6117 5.94738 10.4883 5.82516C10.365 5.70294 10.2125 5.64183 10.0308 5.64183C9.84916 5.64183 9.69693 5.70294 9.57416 5.82516C9.45138 5.94738 9.39027 6.10016 9.39082 6.2835C9.39138 6.46683 9.45304 6.61877 9.57582 6.73933C9.6986 6.85988 9.8511 6.921 10.0333 6.92266C10.2155 6.92433 10.3678 6.86239 10.49 6.7385ZM1.21832 12.0835V7.91683H2.05166V12.0835H1.21832ZM3.52582 13.7502V6.25016H4.35916V13.7502H3.52582ZM17.9483 12.0835V7.91683H18.7817V12.0835H17.9483ZM15.6408 13.7502V6.25016H16.4742V13.7502H15.6408ZM6.50666 15.321V15.8335V4.16683V15.321Z" fill="black"/>
</svg>
