<svg width="20" height="20" viewBox="0 0 20 20" fill="none" xmlns="http://www.w3.org/2000/svg">
<path d="M2.08336 15.4169V14.5835H17.9167V15.4169H2.08336ZM2.52919 10.4394L1.89419 10.071L2.69836 8.6602H1.09003V7.92354H2.69836L1.89419 6.5552L2.52919 6.18604L3.33336 7.5552L4.13836 6.18604L4.77253 6.5552L3.96836 7.92354H5.57669V8.6602H3.96836L4.77253 10.071L4.13753 10.4394L3.33336 9.02937L2.52919 10.4394ZM9.19586 10.4394L8.56086 10.071L9.36586 8.6602H7.75669V7.92354H9.36503L8.56086 6.5552L9.19586 6.18604L10 7.5552L10.805 6.18604L11.4392 6.5552L10.635 7.92354H12.2434V8.6602H10.635L11.4392 10.071L10.8042 10.4394L10 9.02937L9.19586 10.4394ZM15.8625 10.4394L15.2275 10.071L16.0325 8.6602H14.4234V7.92354H16.0317L15.2275 6.5552L15.8625 6.18604L16.6667 7.5552L17.4717 6.18604L18.1059 6.5552L17.3017 7.92354H18.91V8.6602H17.3017L18.1059 10.071L17.4709 10.4394L16.6667 9.02937L15.8625 10.4394Z" fill="black"/>
</svg>
