<svg width="16" height="16" viewBox="0 0 16 16" fill="none" xmlns="http://www.w3.org/2000/svg">
<path fill-rule="evenodd" clip-rule="evenodd" d="M6.45057 1.48859C5.13457 1.48859 3.87247 2.01137 2.94192 2.94192C2.01137 3.87247 1.48859 5.13457 1.48859 6.45057C1.48859 7.76657 2.01137 9.02867 2.94192 9.95922C3.87247 10.8898 5.13457 11.4125 6.45057 11.4125C7.76657 11.4125 9.02867 10.8898 9.95922 9.95922C10.8898 9.02867 11.4125 7.76657 11.4125 6.45057C11.4125 5.13457 10.8898 3.87247 9.95922 2.94192C9.02867 2.01137 7.76657 1.48859 6.45057 1.48859ZM0 6.45057C0 4.73977 0.679611 3.09904 1.88933 1.88933C3.09904 0.679611 4.73977 0 6.45057 0C8.16137 0 9.8021 0.679611 11.0118 1.88933C12.2215 3.09904 12.9011 4.73977 12.9011 6.45057C12.9011 8.16137 12.2215 9.8021 11.0118 11.0118C9.8021 12.2215 8.16137 12.9011 6.45057 12.9011C4.73977 12.9011 3.09904 12.2215 1.88933 11.0118C0.679611 9.8021 0 8.16137 0 6.45057Z" fill="black"/>
<path fill-rule="evenodd" clip-rule="evenodd" d="M10.3903 10.3905C10.5298 10.2511 10.719 10.1729 10.9162 10.1729C11.1135 10.1729 11.3027 10.2511 11.4422 10.3905L15.4118 14.3601C15.4849 14.4282 15.5436 14.5104 15.5843 14.6017C15.6249 14.693 15.6468 14.7916 15.6486 14.8915C15.6503 14.9914 15.632 15.0907 15.5945 15.1834C15.5571 15.2761 15.5014 15.3603 15.4307 15.4309C15.36 15.5016 15.2758 15.5573 15.1831 15.5948C15.0905 15.6322 14.9912 15.6506 14.8913 15.6488C14.7913 15.6471 14.6928 15.6252 14.6015 15.5845C14.5102 15.5438 14.428 15.4852 14.3599 15.412L10.3903 11.4425C10.2509 11.3029 10.1726 11.1137 10.1726 10.9165C10.1726 10.7193 10.2509 10.5301 10.3903 10.3905Z" fill="black"/>
</svg>
