<svg width="16" height="16" viewBox="0 0 16 16" fill="none" xmlns="http://www.w3.org/2000/svg">
<path d="M1.33331 8.13616C1.33331 6.61016 1.33331 5.8475 1.67998 5.2155C2.02531 4.58283 2.65798 4.19083 3.92265 3.4055L5.25598 2.57816C6.59265 1.74816 7.26131 1.3335 7.99998 1.3335C8.73865 1.3335 9.40665 1.74816 10.744 2.57816L12.0773 3.4055C13.342 4.19083 13.9746 4.58283 14.3206 5.2155C14.6666 5.84816 14.6666 6.61016 14.6666 8.1355V9.15016C14.6666 11.7502 14.6666 13.0508 13.8853 13.8588C13.104 14.6668 11.8473 14.6668 9.33331 14.6668H6.66665C4.15265 14.6668 2.89531 14.6668 2.11465 13.8588C1.33398 13.0508 1.33331 11.7508 1.33331 9.15016V8.13616Z" stroke="#2EA3F1"/>
<path d="M8 10V12" stroke="#2EA3F1" stroke-linecap="round"/>
</svg>
