<svg width="20" height="20" viewBox="0 0 20 20" fill="none" xmlns="http://www.w3.org/2000/svg">
<path fill-rule="evenodd" clip-rule="evenodd" d="M1.95413 1.87073C2.07852 1.76267 2.23215 1.69391 2.3956 1.67315C2.55906 1.65238 2.725 1.68054 2.87246 1.75406L17.8725 9.25406C18.0111 9.32317 18.1278 9.42958 18.2093 9.56133C18.2909 9.69308 18.3341 9.84495 18.3341 9.99989C18.3341 10.1548 18.2909 10.3067 18.2093 10.4385C18.1278 10.5702 18.0111 10.6766 17.8725 10.7457L2.87246 18.2457C2.72501 18.3195 2.55899 18.3479 2.39541 18.3273C2.23183 18.3067 2.07804 18.238 1.9535 18.13C1.82895 18.0219 1.73926 17.8794 1.69576 17.7203C1.65226 17.5613 1.65691 17.3929 1.70913 17.2366L3.84413 10.8332H8.33329C8.55431 10.8332 8.76627 10.7454 8.92255 10.5891C9.07883 10.4329 9.16663 10.2209 9.16663 9.99989C9.16663 9.77888 9.07883 9.56692 8.92255 9.41064C8.76627 9.25436 8.55431 9.16656 8.33329 9.16656H3.84413L1.70829 2.76323C1.65634 2.6069 1.65189 2.43869 1.6955 2.27984C1.73911 2.12098 1.82965 1.97862 1.95413 1.87073Z" fill="#D1D1D1"/>
</svg>
