<svg width="32" height="32" viewBox="0 0 32 32" fill="none" xmlns="http://www.w3.org/2000/svg">
<path d="M29.5116 12.2091C28.9814 11.655 28.433 11.0841 28.2262 10.582C28.035 10.1222 28.0238 9.36 28.0125 8.62172C27.9914 7.24922 27.9689 5.69391 26.8875 4.6125C25.8061 3.53109 24.2508 3.50859 22.8783 3.4875C22.14 3.47625 21.3778 3.465 20.918 3.27375C20.4173 3.06703 19.845 2.51859 19.2909 1.98844C18.3206 1.05609 17.2181 0 15.75 0C14.2819 0 13.1808 1.05609 12.2091 1.98844C11.655 2.51859 11.0841 3.06703 10.582 3.27375C10.125 3.465 9.36 3.47625 8.62172 3.4875C7.24922 3.50859 5.69391 3.53109 4.6125 4.6125C3.53109 5.69391 3.51562 7.24922 3.4875 8.62172C3.47625 9.36 3.465 10.1222 3.27375 10.582C3.06703 11.0827 2.51859 11.655 1.98844 12.2091C1.05609 13.1794 0 14.2819 0 15.75C0 17.2181 1.05609 18.3192 1.98844 19.2909C2.51859 19.845 3.06703 20.4159 3.27375 20.918C3.465 21.3778 3.47625 22.14 3.4875 22.8783C3.50859 24.2508 3.53109 25.8061 4.6125 26.8875C5.69391 27.9689 7.24922 27.9914 8.62172 28.0125C9.36 28.0238 10.1222 28.035 10.582 28.2262C11.0827 28.433 11.655 28.9814 12.2091 29.5116C13.1794 30.4439 14.2819 31.5 15.75 31.5C17.2181 31.5 18.3192 30.4439 19.2909 29.5116C19.845 28.9814 20.4159 28.433 20.918 28.2262C21.3778 28.035 22.14 28.0238 22.8783 28.0125C24.2508 27.9914 25.8061 27.9689 26.8875 26.8875C27.9689 25.8061 27.9914 24.2508 28.0125 22.8783C28.0238 22.14 28.035 21.3778 28.2262 20.918C28.433 20.4173 28.9814 19.845 29.5116 19.2909C30.4439 18.3206 31.5 17.2181 31.5 15.75C31.5 14.2819 30.4439 13.1808 29.5116 12.2091ZM27.8873 17.7342C27.2137 18.4373 26.5162 19.1644 26.1464 20.0573C25.792 20.9152 25.7766 21.8953 25.7625 22.8445C25.7484 23.8289 25.733 24.8597 25.2956 25.2956C24.8583 25.7316 23.8345 25.7484 22.8445 25.7625C21.8953 25.7766 20.9152 25.792 20.0573 26.1464C19.1644 26.5162 18.4373 27.2137 17.7342 27.8873C17.0311 28.5609 16.3125 29.25 15.75 29.25C15.1875 29.25 14.4633 28.5581 13.7658 27.8873C13.0683 27.2166 12.3356 26.5162 11.4427 26.1464C10.5848 25.792 9.60469 25.7766 8.65547 25.7625C7.67109 25.7484 6.64031 25.733 6.20437 25.2956C5.76844 24.8583 5.75156 23.8345 5.7375 22.8445C5.72344 21.8953 5.70797 20.9152 5.35359 20.0573C4.98375 19.1644 4.28625 18.4373 3.61266 17.7342C2.93906 17.0311 2.25 16.3125 2.25 15.75C2.25 15.1875 2.94187 14.4633 3.61266 13.7658C4.28344 13.0683 4.98375 12.3356 5.35359 11.4427C5.70797 10.5848 5.72344 9.60469 5.7375 8.65547C5.75156 7.67109 5.76703 6.64031 6.20437 6.20437C6.64172 5.76844 7.66547 5.75156 8.65547 5.7375C9.60469 5.72344 10.5848 5.70797 11.4427 5.35359C12.3356 4.98375 13.0627 4.28625 13.7658 3.61266C14.4689 2.93906 15.1875 2.25 15.75 2.25C16.3125 2.25 17.0367 2.94187 17.7342 3.61266C18.4317 4.28344 19.1644 4.98375 20.0573 5.35359C20.9152 5.70797 21.8953 5.72344 22.8445 5.7375C23.8289 5.75156 24.8597 5.76703 25.2956 6.20437C25.7316 6.64172 25.7484 7.66547 25.7625 8.65547C25.7766 9.60469 25.792 10.5848 26.1464 11.4427C26.5162 12.3356 27.2137 13.0627 27.8873 13.7658C28.5609 14.4689 29.25 15.1875 29.25 15.75C29.25 16.3125 28.5581 17.0367 27.8873 17.7342ZM22.1709 11.5791C22.2755 11.6835 22.3585 11.8076 22.4151 11.9442C22.4717 12.0808 22.5009 12.2272 22.5009 12.375C22.5009 12.5228 22.4717 12.6692 22.4151 12.8058C22.3585 12.9424 22.2755 13.0665 22.1709 13.1709L14.2959 21.0459C14.1915 21.1505 14.0674 21.2335 13.9308 21.2901C13.7942 21.3467 13.6478 21.3759 13.5 21.3759C13.3522 21.3759 13.2058 21.3467 13.0692 21.2901C12.9326 21.2335 12.8085 21.1505 12.7041 21.0459L9.32906 17.6709C9.11797 17.4598 8.99937 17.1735 8.99937 16.875C8.99937 16.5765 9.11797 16.2902 9.32906 16.0791C9.54016 15.868 9.82647 15.7494 10.125 15.7494C10.4235 15.7494 10.7098 15.868 10.9209 16.0791L13.5 18.6595L20.5791 11.5791C20.6835 11.4745 20.8076 11.3915 20.9442 11.3349C21.0808 11.2783 21.2272 11.2491 21.375 11.2491C21.5228 11.2491 21.6692 11.2783 21.8058 11.3349C21.9424 11.3915 22.0665 11.4745 22.1709 11.5791Z" fill="#50C886"/>
</svg>
