<svg width="36" height="36" viewBox="0 0 36 36" fill="none" xmlns="http://www.w3.org/2000/svg">
<path d="M18 4.5C18.3674 4.50005 18.722 4.63493 18.9966 4.87907C19.2711 5.12321 19.4465 5.45962 19.4895 5.8245L19.5 6V30C19.4996 30.3823 19.3532 30.75 19.0907 31.0281C18.8283 31.3061 18.4696 31.4734 18.0879 31.4958C17.7062 31.5182 17.3304 31.394 17.0373 31.1486C16.7441 30.9032 16.5557 30.5551 16.5105 30.1755L16.5 30V6C16.5 5.60218 16.658 5.22064 16.9393 4.93934C17.2206 4.65804 17.6022 4.5 18 4.5ZM12 9C12.3978 9 12.7794 9.15804 13.0607 9.43934C13.342 9.72064 13.5 10.1022 13.5 10.5V25.5C13.5 25.8978 13.342 26.2794 13.0607 26.5607C12.7794 26.842 12.3978 27 12 27C11.6022 27 11.2206 26.842 10.9393 26.5607C10.658 26.2794 10.5 25.8978 10.5 25.5V10.5C10.5 10.1022 10.658 9.72064 10.9393 9.43934C11.2206 9.15804 11.6022 9 12 9ZM24 9C24.3978 9 24.7794 9.15804 25.0607 9.43934C25.342 9.72064 25.5 10.1022 25.5 10.5V25.5C25.5 25.8978 25.342 26.2794 25.0607 26.5607C24.7794 26.842 24.3978 27 24 27C23.6022 27 23.2206 26.842 22.9393 26.5607C22.658 26.2794 22.5 25.8978 22.5 25.5V10.5C22.5 10.1022 22.658 9.72064 22.9393 9.43934C23.2206 9.15804 23.6022 9 24 9ZM6 13.5C6.39782 13.5 6.77936 13.658 7.06066 13.9393C7.34196 14.2206 7.5 14.6022 7.5 15V21C7.5 21.3978 7.34196 21.7794 7.06066 22.0607C6.77936 22.342 6.39782 22.5 6 22.5C5.60218 22.5 5.22064 22.342 4.93934 22.0607C4.65804 21.7794 4.5 21.3978 4.5 21V15C4.5 14.6022 4.65804 14.2206 4.93934 13.9393C5.22064 13.658 5.60218 13.5 6 13.5ZM30 13.5C30.3674 13.5 30.722 13.6349 30.9966 13.8791C31.2711 14.1232 31.4465 14.4596 31.4895 14.8245L31.5 15V21C31.4996 21.3823 31.3532 21.75 31.0907 22.0281C30.8283 22.3061 30.4696 22.4734 30.0879 22.4958C29.7062 22.5182 29.3304 22.394 29.0373 22.1486C28.7441 21.9032 28.5557 21.5551 28.5105 21.1755L28.5 21V15C28.5 14.6022 28.658 14.2206 28.9393 13.9393C29.2206 13.658 29.6022 13.5 30 13.5Z" fill="#2EA3F1"/>
</svg>
