<svg width="12" height="12" viewBox="0 0 12 12" fill="none" xmlns="http://www.w3.org/2000/svg">
<path d="M5.83333 11.6667C9.05508 11.6667 11.6667 9.05508 11.6667 5.83333C11.6667 2.61158 9.05508 0 5.83333 0C2.61158 0 0 2.61158 0 5.83333C0 9.05508 2.61158 11.6667 5.83333 11.6667ZM9.33333 5.83333C9.33333 6.76159 8.96459 7.65183 8.30821 8.30821C7.65183 8.96459 6.76159 9.33333 5.83333 9.33333C4.90508 9.33333 4.01484 8.96459 3.35846 8.30821C2.70208 7.65183 2.33333 6.76159 2.33333 5.83333H5.83333V2.33333C6.76159 2.33333 7.65183 2.70208 8.30821 3.35846C8.96459 4.01484 9.33333 4.90508 9.33333 5.83333Z" fill="#EF8629"/>
</svg>
