<svg width="20" height="20" viewBox="0 0 20 20" fill="none" xmlns="http://www.w3.org/2000/svg">
<path d="M9.56189 3.262C9.60473 3.18262 9.66824 3.11632 9.74571 3.0701C9.82317 3.02389 9.91169 2.99949 10.0019 2.99949C10.0921 2.99949 10.1806 3.02389 10.2581 3.0701C10.3355 3.11632 10.399 3.18262 10.4419 3.262L16.9419 15.262C16.9834 15.3382 17.0043 15.4239 17.0026 15.5107C17.0009 15.5974 16.9767 15.6822 16.9323 15.7568C16.8879 15.8313 16.8249 15.8931 16.7494 15.9359C16.674 15.9787 16.5887 16.0011 16.5019 16.001H3.49989C3.41326 16.001 3.32811 15.9786 3.25277 15.9358C3.17744 15.8931 3.11451 15.8315 3.07014 15.757C3.02578 15.6826 3.00151 15.598 2.99972 15.5114C2.99792 15.4248 3.01865 15.3392 3.05989 15.263L9.56189 3.262ZM11.3199 2.786C10.7529 1.738 9.24989 1.738 8.68289 2.786L2.18089 14.786C2.05702 15.0144 1.99463 15.2711 1.99981 15.5309C2.00499 15.7907 2.07758 16.0447 2.21046 16.268C2.34333 16.4913 2.53194 16.6763 2.7578 16.8048C2.98367 16.9333 3.23903 17.0009 3.49889 17.001H16.5019C16.7618 17.0011 17.0173 16.9336 17.2433 16.8052C17.4693 16.6767 17.6581 16.4918 17.7911 16.2685C17.9241 16.0451 17.9967 15.7911 18.002 15.5312C18.0072 15.2713 17.9448 15.0145 17.8209 14.786L11.3199 2.786ZM10.4999 7.5C10.4999 7.36739 10.4472 7.24021 10.3534 7.14645C10.2597 7.05268 10.1325 7 9.99989 7C9.86728 7 9.7401 7.05268 9.64633 7.14645C9.55256 7.24021 9.49989 7.36739 9.49989 7.5V11.5C9.49989 11.6326 9.55256 11.7598 9.64633 11.8536C9.7401 11.9473 9.86728 12 9.99989 12C10.1325 12 10.2597 11.9473 10.3534 11.8536C10.4472 11.7598 10.4999 11.6326 10.4999 11.5V7.5ZM10.7499 13.75C10.7499 13.9489 10.6709 14.1397 10.5302 14.2803C10.3896 14.421 10.1988 14.5 9.99989 14.5C9.80097 14.5 9.61021 14.421 9.46956 14.2803C9.3289 14.1397 9.24989 13.9489 9.24989 13.75C9.24989 13.5511 9.3289 13.3603 9.46956 13.2197C9.61021 13.079 9.80097 13 9.99989 13C10.1988 13 10.3896 13.079 10.5302 13.2197C10.6709 13.3603 10.7499 13.5511 10.7499 13.75Z" fill="#CE1E1E"/>
</svg>
