<svg width="15" height="15" viewBox="0 0 15 15" fill="none" xmlns="http://www.w3.org/2000/svg">
<path d="M13.6075 5.72243C14.006 5.45584 14.3379 5.10111 14.5773 4.68571C14.8168 4.2703 14.9575 3.80537 14.9884 3.32689C15.0194 2.84841 14.9399 2.36921 14.756 1.9264C14.572 1.48359 14.2887 1.08903 13.9279 0.773278C13.567 0.457522 13.1384 0.229034 12.6751 0.105499C12.2118 -0.0180363 11.7263 -0.0333044 11.2561 0.0608765C10.786 0.155057 10.3438 0.356161 9.96387 0.648621C9.58391 0.941081 9.27634 1.31705 9.06497 1.74743C10.0845 1.99908 11.029 2.49128 11.8193 3.18286C12.6096 3.87443 13.2228 4.74525 13.6075 5.72243Z" fill="url(#paint0_linear_70_1237)"/>
<path d="M13.6075 5.72243C14.006 5.45584 14.3379 5.10111 14.5773 4.68571C14.8168 4.2703 14.9575 3.80537 14.9884 3.32689C15.0194 2.84841 14.9399 2.36921 14.756 1.9264C14.572 1.48359 14.2887 1.08903 13.9279 0.773278C13.567 0.457522 13.1384 0.229034 12.6751 0.105499C12.2118 -0.0180363 11.7263 -0.0333044 11.2561 0.0608765C10.786 0.155057 10.3438 0.356161 9.96387 0.648621C9.58391 0.941081 9.27634 1.31705 9.06497 1.74743C10.0845 1.99908 11.029 2.49128 11.8193 3.18286C12.6096 3.87443 13.2228 4.74525 13.6075 5.72243Z" fill="url(#paint1_radial_70_1237)"/>
<path d="M5.92998 1.74743C4.91041 1.99908 3.96594 2.49128 3.17563 3.18286C2.38532 3.87443 1.77217 4.74525 1.38748 5.72243C0.988948 5.45584 0.657104 5.10111 0.417637 4.68571C0.17817 4.2703 0.0375049 3.80537 0.00652855 3.32689C-0.0244478 2.84841 0.0550957 2.36921 0.239002 1.9264C0.422909 1.48359 0.706246 1.08903 1.06708 0.773278C1.42792 0.457522 1.85657 0.229034 2.31987 0.105499C2.78317 -0.0180363 3.26867 -0.0333044 3.73882 0.0608765C4.20896 0.155057 4.65113 0.356161 5.03109 0.648621C5.41105 0.941081 5.71862 1.31705 5.92998 1.74743Z" fill="url(#paint2_linear_70_1237)"/>
<path d="M5.92998 1.74743C4.91041 1.99908 3.96594 2.49128 3.17563 3.18286C2.38532 3.87443 1.77217 4.74525 1.38748 5.72243C0.988948 5.45584 0.657104 5.10111 0.417637 4.68571C0.17817 4.2703 0.0375049 3.80537 0.00652855 3.32689C-0.0244478 2.84841 0.0550957 2.36921 0.239002 1.9264C0.422909 1.48359 0.706246 1.08903 1.06708 0.773278C1.42792 0.457522 1.85657 0.229034 2.31987 0.105499C2.78317 -0.0180363 3.26867 -0.0333044 3.73882 0.0608765C4.20896 0.155057 4.65113 0.356161 5.03109 0.648621C5.41105 0.941081 5.71862 1.31705 5.92998 1.74743Z" fill="url(#paint3_radial_70_1237)"/>
<path d="M1.68998 14.8149L3.56498 12.9399L2.67998 12.0562L0.804979 13.9312C0.687786 14.0485 0.622014 14.2076 0.622132 14.3735C0.622249 14.5393 0.688246 14.6983 0.805604 14.8155C0.922962 14.9327 1.08207 14.9985 1.24792 14.9984C1.41377 14.9983 1.57279 14.9323 1.68998 14.8149Z" fill="url(#paint4_linear_70_1237)"/>
<path d="M14.19 13.9312L12.315 12.0562L11.43 12.9399L13.305 14.8149C13.3626 14.8746 13.4316 14.9222 13.5079 14.955C13.5841 14.9877 13.6661 15.005 13.7491 15.0057C13.8321 15.0064 13.9144 14.9906 13.9912 14.9592C14.068 14.9277 14.1378 14.8813 14.1965 14.8226C14.2552 14.764 14.3016 14.6942 14.333 14.6174C14.3644 14.5406 14.3802 14.4583 14.3795 14.3753C14.3788 14.2923 14.3616 14.2103 14.3288 14.134C14.2961 14.0578 14.2484 13.9888 14.1887 13.9312" fill="url(#paint5_linear_70_1237)"/>
<path d="M14.3725 8.12244C14.3725 9.9458 13.6482 11.6945 12.3589 12.9838C11.0695 14.2731 9.32086 14.9974 7.4975 14.9974C5.67413 14.9974 3.92545 14.2731 2.63614 12.9838C1.34683 11.6945 0.622498 9.9458 0.622498 8.12244C0.622498 6.29907 1.34683 4.55039 2.63614 3.26108C3.92545 1.97176 5.67413 1.24744 7.4975 1.24744C9.32086 1.24744 11.0695 1.97176 12.3589 3.26108C13.6482 4.55039 14.3725 6.29907 14.3725 8.12244Z" fill="url(#paint6_linear_70_1237)"/>
<path d="M13.1225 8.12244C13.1225 9.61428 12.5299 11.045 11.475 12.0999C10.4201 13.1548 8.98934 13.7474 7.4975 13.7474C6.00565 13.7474 4.57491 13.1548 3.52002 12.0999C2.46513 11.045 1.8725 9.61428 1.8725 8.12244C1.8725 6.63059 2.46513 5.19985 3.52002 4.14496C4.57491 3.09007 6.00565 2.49744 7.4975 2.49744C8.98934 2.49744 10.4201 3.09007 11.475 4.14496C12.5299 5.19985 13.1225 6.63059 13.1225 8.12244Z" fill="url(#paint7_linear_70_1237)"/>
<path fill-rule="evenodd" clip-rule="evenodd" d="M6.8725 4.37244C7.03826 4.37244 7.19723 4.43828 7.31444 4.55549C7.43165 4.67271 7.4975 4.83168 7.4975 4.99744V8.12244H9.3725C9.53826 8.12244 9.69723 8.18828 9.81444 8.30549C9.93165 8.4227 9.9975 8.58168 9.9975 8.74744C9.9975 8.9132 9.93165 9.07217 9.81444 9.18938C9.69723 9.30659 9.53826 9.37244 9.3725 9.37244H6.8725C6.70674 9.37244 6.54777 9.30659 6.43056 9.18938C6.31335 9.07217 6.2475 8.9132 6.2475 8.74744V4.99744C6.2475 4.83168 6.31335 4.67271 6.43056 4.55549C6.54777 4.43828 6.70674 4.37244 6.8725 4.37244Z" fill="url(#paint8_linear_70_1237)"/>
<defs>
<linearGradient id="paint0_linear_70_1237" x1="16.0062" y1="6.13868" x2="10.1712" y2="1.36493" gradientUnits="userSpaceOnUse">
<stop stop-color="#FF6F47"/>
<stop offset="1" stop-color="#FFCD0F"/>
</linearGradient>
<radialGradient id="paint1_radial_70_1237" cx="0" cy="0" r="1" gradientUnits="userSpaceOnUse" gradientTransform="translate(7.99747 7.99743) rotate(-45) scale(9.19239)">
<stop offset="0.644" stop-color="#FF6F47"/>
<stop offset="0.942" stop-color="#FF6F47" stop-opacity="0"/>
</radialGradient>
<linearGradient id="paint2_linear_70_1237" x1="6.14998" y1="6.13868" x2="0.314985" y2="1.36493" gradientUnits="userSpaceOnUse">
<stop stop-color="#FF6F47"/>
<stop offset="1" stop-color="#FFCD0F"/>
</linearGradient>
<radialGradient id="paint3_radial_70_1237" cx="0" cy="0" r="1" gradientUnits="userSpaceOnUse" gradientTransform="translate(7.9984 7.99706) rotate(-135) scale(9.25)">
<stop offset="0.659" stop-color="#FF6F47"/>
<stop offset="0.949" stop-color="#FF6F47" stop-opacity="0"/>
</radialGradient>
<linearGradient id="paint4_linear_70_1237" x1="0.622479" y1="10.7924" x2="1.21373" y2="15.9662" gradientUnits="userSpaceOnUse">
<stop stop-color="#CAD2D9"/>
<stop offset="1" stop-color="#70777D"/>
</linearGradient>
<linearGradient id="paint5_linear_70_1237" x1="0.622494" y1="10.7924" x2="1.21374" y2="15.9662" gradientUnits="userSpaceOnUse">
<stop stop-color="#CAD2D9"/>
<stop offset="1" stop-color="#70777D"/>
</linearGradient>
<linearGradient id="paint6_linear_70_1237" x1="2.91375" y1="0.483687" x2="9.78875" y2="15.7612" gradientUnits="userSpaceOnUse">
<stop stop-color="#1EC8B0"/>
<stop offset="1" stop-color="#2764E7"/>
</linearGradient>
<linearGradient id="paint7_linear_70_1237" x1="3.585" y1="1.27494" x2="10.9212" y2="16.9262" gradientUnits="userSpaceOnUse">
<stop stop-color="#FDFDFD"/>
<stop offset="1" stop-color="#DEDEFF"/>
</linearGradient>
<linearGradient id="paint8_linear_70_1237" x1="7.9975" y1="4.27494" x2="10.355" y2="8.20494" gradientUnits="userSpaceOnUse">
<stop stop-color="#1EC8B0"/>
<stop offset="1" stop-color="#2764E7"/>
</linearGradient>
</defs>
</svg>
