<svg width="13" height="13" viewBox="0 0 13 13" fill="none" xmlns="http://www.w3.org/2000/svg">
<path d="M10.8127 3.99799C10.7103 3.71215 10.3609 2.95761 9.27617 1.89419C8.12671 0.767194 7.33075 0.449861 7.08283 0.372277C6.5887 0.357132 6.09436 0.349742 5.6 0.350111C3.773 0.350111 2.51825 0.443444 1.736 0.532986C1.09404 0.606486 0.613082 1.08803 0.542499 1.73028C0.449165 2.57319 0.349998 3.98807 0.349998 6.18344C0.349998 8.37882 0.449457 9.79369 0.542499 10.6366C0.613082 11.2789 1.09404 11.7604 1.736 11.8339C2.28958 11.8972 3.07971 11.9622 4.14167 11.9952" stroke="white" stroke-width="0.7" stroke-linecap="round" stroke-linejoin="round"/>
<path d="M10.8167 4.1297C10.208 4.22041 9.11312 4.1507 8.28216 4.07399C7.96543 4.04572 7.66861 3.90737 7.44327 3.683C7.21794 3.45862 7.07833 3.16239 7.0487 2.84578C6.97054 2.02853 6.90112 0.959867 6.9962 0.370117M11.4333 9.4672C11.4333 9.4672 11.2954 8.85237 10.4673 8.02462C9.63958 7.19658 9.02475 7.05862 9.02475 7.05862M2.39166 3.26695L3.55833 4.43362L5.01666 2.39195M2.39166 6.47528L3.55833 7.64195L5.01666 5.60028" stroke="white" stroke-width="0.7" stroke-linecap="round" stroke-linejoin="round"/>
<path d="M12.2106 8.68929C12.6347 8.2655 12.7969 7.646 12.4422 7.16241C12.2853 6.95083 12.1128 6.75135 11.926 6.56567C11.7101 6.34983 11.5089 6.18125 11.3289 6.04942C10.8456 5.69475 10.2261 5.85691 9.80204 6.28071L6.20287 9.87987C6.04449 10.0385 5.93599 10.2395 5.91733 10.4632C5.89195 10.7668 5.87329 11.2828 5.92229 12.0464C5.93101 12.1822 5.98891 12.3102 6.08516 12.4065C6.1814 12.5027 6.30941 12.5606 6.44525 12.5693C7.20854 12.6183 7.72479 12.5997 8.02841 12.574C8.25183 12.5553 8.45308 12.4471 8.61175 12.2882L12.2106 8.68929Z" stroke="white" stroke-width="0.7" stroke-linecap="round" stroke-linejoin="round"/>
</svg>
