<svg width="13" height="12" viewBox="0 0 13 12" fill="none" xmlns="http://www.w3.org/2000/svg">
<path d="M8.46665 2.63314C8.46665 1.53297 8.46665 0.983471 8.12482 0.641638C7.78299 0.299805 7.23349 0.299805 6.13332 0.299805C5.03315 0.299805 4.48365 0.299805 4.14182 0.641638C3.79999 0.983471 3.79999 1.53297 3.79999 2.63314M0.299988 6.71647C0.299988 5.07789 0.299988 4.25889 0.693154 3.6703C0.863436 3.41542 1.08227 3.19659 1.33715 3.0263C1.92574 2.63314 2.74415 2.63314 4.38332 2.63314H7.88332C9.5219 2.63314 10.3409 2.63314 10.9295 3.0263C11.1844 3.19659 11.4032 3.41542 11.5735 3.6703C11.9667 4.25889 11.9667 5.0773 11.9667 6.71647C11.9667 8.35564 11.9667 9.17405 11.5735 9.76264C11.4032 10.0175 11.1844 10.2364 10.9295 10.4066C10.3409 10.7998 9.52249 10.7998 7.88332 10.7998H4.38332C2.74474 10.7998 1.92574 10.7998 1.33715 10.4066C1.08227 10.2364 0.863436 10.0175 0.693154 9.76264C0.299988 9.17405 0.299988 8.35564 0.299988 6.71647Z" stroke="white" stroke-width="0.6" stroke-linecap="round" stroke-linejoin="round"/>
<path d="M2.6333 4.96631L3.01363 5.08414C5.047 5.7055 7.2196 5.7055 9.25297 5.08414L9.6333 4.96631M6.1333 5.54964V6.71631" stroke="white" stroke-width="0.6" stroke-linecap="round" stroke-linejoin="round"/>
</svg>
